M48
; DRILL file {KiCad 9.0.1} date 2025-04-04T22:39:04+0200
; FORMAT={-:-/ absolute / metric / decimal}
; #@! TF.CreationDate,2025-04-04T22:39:04+02:00
; #@! TF.GenerationSoftware,Kicad,Pcbnew,9.0.1
; #@! TF.FileFunction,Plated,1,2,PTH
FMAT,2
METRIC
; #@! TA.AperFunction,Plated,PTH,ViaDrill
T1C0.300
; #@! TA.AperFunction,Plated,PTH,ComponentDrill
T2C0.800
; #@! TA.AperFunction,Plated,PTH,ComponentDrill
T3C1.000
%
G90
G05
T1
X66.04Y-68.502
X68.58Y-108.888
X73.66Y-70.28
X77.47Y-68.375
X78.74Y-63.93
X82.55Y-70.28
X83.185Y-68.375
T2
X60.96Y-77.9
X60.96Y-80.44
X60.96Y-82.98
X60.96Y-85.52
X60.96Y-88.06
X60.96Y-90.6
X60.96Y-93.14
X60.96Y-95.68
X60.96Y-98.22
X63.5Y-75.36
X63.5Y-77.9
X63.5Y-80.44
X63.5Y-82.98
X63.5Y-85.52
X63.5Y-88.06
X63.5Y-90.6
X63.5Y-93.14
X63.5Y-95.68
X63.5Y-98.22
X63.5Y-100.76
X66.04Y-75.36
X66.04Y-77.9
X66.04Y-98.22
X66.04Y-100.76
X68.58Y-75.36
X68.58Y-77.9
X68.58Y-98.22
X68.58Y-100.76
X71.12Y-75.36
X71.12Y-77.9
X71.12Y-98.22
X71.12Y-100.76
X73.66Y-75.36
X73.66Y-77.9
X73.66Y-98.22
X73.66Y-100.76
X76.2Y-75.36
X76.2Y-77.9
X76.2Y-98.22
X76.2Y-100.76
X78.74Y-75.36
X78.74Y-77.9
X78.74Y-98.22
X78.74Y-100.76
X81.28Y-75.36
X81.28Y-77.9
X81.28Y-98.22
X81.28Y-100.76
X83.82Y-75.36
X83.82Y-77.9
X83.82Y-80.44
X83.82Y-82.98
X83.82Y-85.52
X83.82Y-88.06
X83.82Y-90.6
X83.82Y-93.14
X83.82Y-95.68
X83.82Y-98.22
X83.82Y-100.76
X86.36Y-77.9
X86.36Y-80.44
X86.36Y-82.98
X86.36Y-85.52
X86.36Y-88.06
X86.36Y-90.6
X86.36Y-93.14
X86.36Y-95.68
X86.36Y-98.22
T3
X50.8Y-49.95
X50.8Y-52.49
X50.8Y-55.03
X50.8Y-57.57
X50.8Y-60.11
X50.8Y-62.65
X50.8Y-65.19
X50.8Y-67.73
X50.8Y-70.27
X50.8Y-72.81
X50.8Y-75.35
X50.8Y-77.89
X50.8Y-80.43
X50.8Y-82.97
X50.8Y-85.51
X50.8Y-88.05
X50.8Y-90.59
X50.8Y-93.13
X50.8Y-95.67
X50.8Y-98.21
X50.8Y-100.75
X50.8Y-103.29
X50.8Y-105.83
X50.8Y-108.37
X50.8Y-110.91
X50.8Y-113.45
X50.8Y-115.99
X50.8Y-118.53
X50.8Y-121.07
X50.8Y-123.61
X50.8Y-126.15
X96.52Y-49.96
X96.52Y-52.5
X96.52Y-55.04
X96.52Y-57.58
X96.52Y-60.12
X96.52Y-62.66
X96.52Y-65.2
X96.52Y-67.74
X96.52Y-70.28
X96.52Y-72.82
X96.52Y-75.36
X96.52Y-77.9
X96.52Y-80.44
X96.52Y-82.98
X96.52Y-85.52
X96.52Y-88.06
X96.52Y-90.6
X96.52Y-93.14
X96.52Y-95.68
X96.52Y-98.22
X96.52Y-100.76
X96.52Y-103.3
X96.52Y-105.84
X96.52Y-108.38
X96.52Y-110.92
X96.52Y-113.46
X96.52Y-116.0
X96.52Y-118.54
X96.52Y-121.08
X96.52Y-123.62
X96.52Y-126.16
M30
