G04 #@! TF.GenerationSoftware,KiCad,Pcbnew,9.0.1*
G04 #@! TF.CreationDate,2025-04-04T22:38:55+02:00*
G04 #@! TF.ProjectId,80286,38303238-362e-46b6-9963-61645f706362,rev?*
G04 #@! TF.SameCoordinates,Original*
G04 #@! TF.FileFunction,Copper,L2,Bot*
G04 #@! TF.FilePolarity,Positive*
%FSLAX46Y46*%
G04 Gerber Fmt 4.6, Leading zero omitted, Abs format (unit mm)*
G04 Created by KiCad (PCBNEW 9.0.1) date 2025-04-04 22:38:55*
%MOMM*%
%LPD*%
G01*
G04 APERTURE LIST*
G04 #@! TA.AperFunction,ComponentPad*
%ADD10C,1.422400*%
G04 #@! TD*
G04 #@! TA.AperFunction,ComponentPad*
%ADD11R,1.422400X1.422400*%
G04 #@! TD*
G04 #@! TA.AperFunction,ComponentPad*
%ADD12C,1.700000*%
G04 #@! TD*
G04 #@! TA.AperFunction,ComponentPad*
%ADD13R,1.700000X1.700000*%
G04 #@! TD*
G04 #@! TA.AperFunction,ViaPad*
%ADD14C,0.600000*%
G04 #@! TD*
G04 #@! TA.AperFunction,Conductor*
%ADD15C,0.200000*%
G04 #@! TD*
G04 APERTURE END LIST*
D10*
X76200000Y-77900000D03*
X76200000Y-75360000D03*
X78740000Y-77900000D03*
X78740000Y-75360000D03*
X81280000Y-77900000D03*
X81280000Y-75360000D03*
X83820000Y-77900000D03*
X83820000Y-75360000D03*
X86360000Y-77900000D03*
X83820000Y-80440000D03*
X86360000Y-80440000D03*
X83820000Y-82980000D03*
X86360000Y-82980000D03*
X83820000Y-85520000D03*
X86360000Y-85520000D03*
X83820000Y-88060000D03*
X86360000Y-88060000D03*
X83820000Y-90600000D03*
X86360000Y-90600000D03*
X83820000Y-93140000D03*
X86360000Y-93140000D03*
X83820000Y-95680000D03*
X86360000Y-95680000D03*
X83820000Y-98220000D03*
X86360000Y-98220000D03*
X83820000Y-100760000D03*
X81280000Y-98220000D03*
X81280000Y-100760000D03*
X78740000Y-98220000D03*
X78740000Y-100760000D03*
X76200000Y-98220000D03*
X76200000Y-100760000D03*
X73660000Y-98220000D03*
X73660000Y-100760000D03*
X71120000Y-98220000D03*
X71120000Y-100760000D03*
X68580000Y-98220000D03*
X68580000Y-100760000D03*
X66040000Y-98220000D03*
X66040000Y-100760000D03*
X63500000Y-98220000D03*
X63500000Y-100760000D03*
X60960000Y-98220000D03*
X63500000Y-95680000D03*
X60960000Y-95680000D03*
X63500000Y-93140000D03*
X60960000Y-93140000D03*
X63500000Y-90600000D03*
X60960000Y-90600000D03*
X63500000Y-88060000D03*
X60960000Y-88060000D03*
X63500000Y-85520000D03*
X60960000Y-85520000D03*
X63500000Y-82980000D03*
X60960000Y-82980000D03*
X63500000Y-80440000D03*
X60960000Y-80440000D03*
X63500000Y-77900000D03*
X60960000Y-77900000D03*
X63500000Y-75360000D03*
X66040000Y-77900000D03*
X66040000Y-75360000D03*
X68580000Y-77900000D03*
X68580000Y-75360000D03*
X71120000Y-77900000D03*
X71120000Y-75360000D03*
X73660000Y-77900000D03*
D11*
X73660000Y-75360000D03*
D12*
X50800000Y-126150000D03*
X50800000Y-123610000D03*
X50800000Y-121070000D03*
X50800000Y-118530000D03*
X50800000Y-115990000D03*
X50800000Y-113450000D03*
X50800000Y-110910000D03*
X50800000Y-108370000D03*
X50800000Y-105830000D03*
X50800000Y-103290000D03*
X50800000Y-100750000D03*
X50800000Y-98210000D03*
X50800000Y-95670000D03*
X50800000Y-93130000D03*
X50800000Y-90590000D03*
X50800000Y-88050000D03*
X50800000Y-85510000D03*
X50800000Y-82970000D03*
X50800000Y-80430000D03*
X50800000Y-77890000D03*
X50800000Y-75350000D03*
X50800000Y-72810000D03*
X50800000Y-70270000D03*
X50800000Y-67730000D03*
X50800000Y-65190000D03*
X50800000Y-62650000D03*
X50800000Y-60110000D03*
X50800000Y-57570000D03*
X50800000Y-55030000D03*
X50800000Y-52490000D03*
X50800000Y-49950000D03*
D13*
X96520000Y-49960000D03*
D12*
X96520000Y-70280000D03*
D13*
X96520000Y-126160000D03*
D12*
X96520000Y-123620000D03*
X96520000Y-121080000D03*
X96520000Y-118540000D03*
X96520000Y-116000000D03*
X96520000Y-113460000D03*
X96520000Y-110920000D03*
X96520000Y-108380000D03*
X96520000Y-105840000D03*
X96520000Y-103300000D03*
X96520000Y-100760000D03*
X96520000Y-98220000D03*
X96520000Y-95680000D03*
X96520000Y-93140000D03*
X96520000Y-90600000D03*
X96520000Y-88060000D03*
X96520000Y-85520000D03*
X96520000Y-82980000D03*
X96520000Y-80440000D03*
X96520000Y-77900000D03*
X96520000Y-75360000D03*
X96520000Y-72820000D03*
X96520000Y-67740000D03*
X96520000Y-65200000D03*
X96520000Y-62660000D03*
X96520000Y-60120000D03*
X96520000Y-57580000D03*
D13*
X96520000Y-55040000D03*
D12*
X96520000Y-52500000D03*
D14*
X68580000Y-108888000D03*
X66040000Y-68502000D03*
X78740000Y-63930000D03*
X83185000Y-68375000D03*
X77470000Y-68375000D03*
X82550000Y-70280000D03*
X73660000Y-70280000D03*
D15*
X53330000Y-126150000D02*
X53340000Y-126160000D01*
X50800000Y-126150000D02*
X53330000Y-126150000D01*
X68580000Y-100760000D02*
X68580000Y-108888000D01*
X67310000Y-99490000D02*
X67310000Y-112190000D01*
X66040000Y-98220000D02*
X67310000Y-99490000D01*
X67310000Y-112190000D02*
X53340000Y-126160000D01*
X78740000Y-63930000D02*
X83185000Y-68375000D01*
X66167000Y-68375000D02*
X66040000Y-68502000D01*
X77470000Y-68375000D02*
X66167000Y-68375000D01*
X82550000Y-70280000D02*
X73660000Y-70280000D01*
X53330000Y-67730000D02*
X50800000Y-67730000D01*
X63500000Y-77900000D02*
X53330000Y-67730000D01*
X52060000Y-121070000D02*
X50800000Y-121070000D01*
X66040000Y-108380000D02*
X66040000Y-100760000D01*
X52070000Y-121080000D02*
X52060000Y-121070000D01*
X53340000Y-121080000D02*
X52070000Y-121080000D01*
X53340000Y-121080000D02*
X66040000Y-108380000D01*
X53340000Y-123620000D02*
X52070000Y-123620000D01*
X52060000Y-123610000D02*
X50800000Y-123610000D01*
X52070000Y-123620000D02*
X52060000Y-123610000D01*
X76200000Y-100760000D02*
X81153000Y-105713000D01*
X93980000Y-103300000D02*
X91567000Y-105713000D01*
X81153000Y-105713000D02*
X91567000Y-105713000D01*
X93980000Y-103300000D02*
X96520000Y-103300000D01*
X78740000Y-101014000D02*
X78740000Y-100760000D01*
X93980000Y-100760000D02*
X96520000Y-100760000D01*
X81915000Y-104189000D02*
X90551000Y-104189000D01*
X81915000Y-104189000D02*
X78740000Y-101014000D01*
X90551000Y-104189000D02*
X93980000Y-100760000D01*
X83820000Y-100760000D02*
X88900000Y-100760000D01*
X93980000Y-95680000D02*
X96520000Y-95680000D01*
X88900000Y-100760000D02*
X93980000Y-95680000D01*
X93980000Y-98220000D02*
X96520000Y-98220000D01*
X93980000Y-98220000D02*
X89281000Y-102919000D01*
X83439000Y-102919000D02*
X81280000Y-100760000D01*
X89281000Y-102919000D02*
X83439000Y-102919000D01*
X90170000Y-96950000D02*
X93980000Y-93140000D01*
X85090000Y-96950000D02*
X90170000Y-96950000D01*
X93980000Y-93140000D02*
X96520000Y-93140000D01*
X83820000Y-98220000D02*
X85090000Y-96950000D01*
X93980000Y-88060000D02*
X96520000Y-88060000D01*
X83820000Y-93140000D02*
X85090000Y-91870000D01*
X90170000Y-91870000D02*
X93980000Y-88060000D01*
X85090000Y-91870000D02*
X90170000Y-91870000D01*
X85090000Y-94410000D02*
X90170000Y-94410000D01*
X93980000Y-90600000D02*
X96520000Y-90600000D01*
X83820000Y-95680000D02*
X85090000Y-94410000D01*
X90170000Y-94410000D02*
X93980000Y-90600000D01*
X85090000Y-89330000D02*
X90170000Y-89330000D01*
X83820000Y-90600000D02*
X85090000Y-89330000D01*
X93980000Y-85520000D02*
X96520000Y-85520000D01*
X90170000Y-89330000D02*
X93980000Y-85520000D01*
X86360000Y-57580000D02*
X88900000Y-55040000D01*
X88900000Y-55040000D02*
X96520000Y-55040000D01*
X86360000Y-77900000D02*
X86360000Y-57580000D01*
X83820000Y-77900000D02*
X85090000Y-76630000D01*
X85090000Y-76630000D02*
X85090000Y-56310000D01*
X88900000Y-52500000D02*
X96520000Y-52500000D01*
X85090000Y-56310000D02*
X88900000Y-52500000D01*
X88900000Y-49960000D02*
X96520000Y-49960000D01*
X83820000Y-55040000D02*
X88900000Y-49960000D01*
X63500000Y-75360000D02*
X66040000Y-72820000D01*
X81280000Y-72820000D02*
X83820000Y-70280000D01*
X83820000Y-70280000D02*
X83820000Y-55040000D01*
X66040000Y-72820000D02*
X81280000Y-72820000D01*
M02*
