%TF.GenerationSoftware,KiCad,Pcbnew,9.0.1*%
%TF.CreationDate,2025-04-04T22:39:04+02:00*%
%TF.ProjectId,80286,38303238-362e-46b6-9963-61645f706362,rev?*%
%TF.SameCoordinates,Original*%
%TF.FileFunction,Drillmap*%
%TF.FilePolarity,Positive*%
%FSLAX45Y45*%
G04 Gerber Fmt 4.5, Leading zero omitted, Abs format (unit mm)*
G04 Created by KiCad (PCBNEW 9.0.1) date 2025-04-04 22:39:04*
%MOMM*%
%LPD*%
G01*
G04 APERTURE LIST*
%ADD10C,0.050000*%
%ADD11C,0.200000*%
%ADD12C,0.100000*%
G04 APERTURE END LIST*
D10*
X5080000Y-12881700D02*
G75*
G02*
X4826000Y-12627700I0J254000D01*
G01*
X9906000Y-12616000D02*
X9906000Y-4996000D01*
X9652000Y-4742000D02*
G75*
G02*
X9906000Y-4996000I0J-254000D01*
G01*
X5080000Y-4742000D02*
X9652000Y-4742000D01*
X4826000Y-12627700D02*
X4826000Y-4996000D01*
X9906000Y-12616000D02*
G75*
G02*
X9652000Y-12870000I-254000J0D01*
G01*
X9652000Y-12869875D02*
X5080000Y-12881700D01*
X4826000Y-4996000D02*
G75*
G02*
X5080000Y-4742000I254000J0D01*
G01*
D11*
D12*
X6589000Y-6835200D02*
X6619000Y-6865200D01*
X6619000Y-6835200D02*
X6589000Y-6865200D01*
X6843000Y-10873800D02*
X6873000Y-10903800D01*
X6873000Y-10873800D02*
X6843000Y-10903800D01*
X7351000Y-7013000D02*
X7381000Y-7043000D01*
X7381000Y-7013000D02*
X7351000Y-7043000D01*
X7732000Y-6822500D02*
X7762000Y-6852500D01*
X7762000Y-6822500D02*
X7732000Y-6852500D01*
X7859000Y-6378000D02*
X7889000Y-6408000D01*
X7889000Y-6378000D02*
X7859000Y-6408000D01*
X8240000Y-7013000D02*
X8270000Y-7043000D01*
X8270000Y-7013000D02*
X8240000Y-7043000D01*
X8303500Y-6822500D02*
X8333500Y-6852500D01*
X8333500Y-6822500D02*
X8303500Y-6852500D01*
X6136000Y-7790000D02*
G75*
G02*
X6056000Y-7790000I-40000J0D01*
G01*
X6056000Y-7790000D02*
G75*
G02*
X6136000Y-7790000I40000J0D01*
G01*
X6136000Y-8044000D02*
G75*
G02*
X6056000Y-8044000I-40000J0D01*
G01*
X6056000Y-8044000D02*
G75*
G02*
X6136000Y-8044000I40000J0D01*
G01*
X6136000Y-8298000D02*
G75*
G02*
X6056000Y-8298000I-40000J0D01*
G01*
X6056000Y-8298000D02*
G75*
G02*
X6136000Y-8298000I40000J0D01*
G01*
X6136000Y-8552000D02*
G75*
G02*
X6056000Y-8552000I-40000J0D01*
G01*
X6056000Y-8552000D02*
G75*
G02*
X6136000Y-8552000I40000J0D01*
G01*
X6136000Y-8806000D02*
G75*
G02*
X6056000Y-8806000I-40000J0D01*
G01*
X6056000Y-8806000D02*
G75*
G02*
X6136000Y-8806000I40000J0D01*
G01*
X6136000Y-9060000D02*
G75*
G02*
X6056000Y-9060000I-40000J0D01*
G01*
X6056000Y-9060000D02*
G75*
G02*
X6136000Y-9060000I40000J0D01*
G01*
X6136000Y-9314000D02*
G75*
G02*
X6056000Y-9314000I-40000J0D01*
G01*
X6056000Y-9314000D02*
G75*
G02*
X6136000Y-9314000I40000J0D01*
G01*
X6136000Y-9568000D02*
G75*
G02*
X6056000Y-9568000I-40000J0D01*
G01*
X6056000Y-9568000D02*
G75*
G02*
X6136000Y-9568000I40000J0D01*
G01*
X6136000Y-9822000D02*
G75*
G02*
X6056000Y-9822000I-40000J0D01*
G01*
X6056000Y-9822000D02*
G75*
G02*
X6136000Y-9822000I40000J0D01*
G01*
X6390000Y-7536000D02*
G75*
G02*
X6310000Y-7536000I-40000J0D01*
G01*
X6310000Y-7536000D02*
G75*
G02*
X6390000Y-7536000I40000J0D01*
G01*
X6390000Y-7790000D02*
G75*
G02*
X6310000Y-7790000I-40000J0D01*
G01*
X6310000Y-7790000D02*
G75*
G02*
X6390000Y-7790000I40000J0D01*
G01*
X6390000Y-8044000D02*
G75*
G02*
X6310000Y-8044000I-40000J0D01*
G01*
X6310000Y-8044000D02*
G75*
G02*
X6390000Y-8044000I40000J0D01*
G01*
X6390000Y-8298000D02*
G75*
G02*
X6310000Y-8298000I-40000J0D01*
G01*
X6310000Y-8298000D02*
G75*
G02*
X6390000Y-8298000I40000J0D01*
G01*
X6390000Y-8552000D02*
G75*
G02*
X6310000Y-8552000I-40000J0D01*
G01*
X6310000Y-8552000D02*
G75*
G02*
X6390000Y-8552000I40000J0D01*
G01*
X6390000Y-8806000D02*
G75*
G02*
X6310000Y-8806000I-40000J0D01*
G01*
X6310000Y-8806000D02*
G75*
G02*
X6390000Y-8806000I40000J0D01*
G01*
X6390000Y-9060000D02*
G75*
G02*
X6310000Y-9060000I-40000J0D01*
G01*
X6310000Y-9060000D02*
G75*
G02*
X6390000Y-9060000I40000J0D01*
G01*
X6390000Y-9314000D02*
G75*
G02*
X6310000Y-9314000I-40000J0D01*
G01*
X6310000Y-9314000D02*
G75*
G02*
X6390000Y-9314000I40000J0D01*
G01*
X6390000Y-9568000D02*
G75*
G02*
X6310000Y-9568000I-40000J0D01*
G01*
X6310000Y-9568000D02*
G75*
G02*
X6390000Y-9568000I40000J0D01*
G01*
X6390000Y-9822000D02*
G75*
G02*
X6310000Y-9822000I-40000J0D01*
G01*
X6310000Y-9822000D02*
G75*
G02*
X6390000Y-9822000I40000J0D01*
G01*
X6390000Y-10076000D02*
G75*
G02*
X6310000Y-10076000I-40000J0D01*
G01*
X6310000Y-10076000D02*
G75*
G02*
X6390000Y-10076000I40000J0D01*
G01*
X6644000Y-7536000D02*
G75*
G02*
X6564000Y-7536000I-40000J0D01*
G01*
X6564000Y-7536000D02*
G75*
G02*
X6644000Y-7536000I40000J0D01*
G01*
X6644000Y-7790000D02*
G75*
G02*
X6564000Y-7790000I-40000J0D01*
G01*
X6564000Y-7790000D02*
G75*
G02*
X6644000Y-7790000I40000J0D01*
G01*
X6644000Y-9822000D02*
G75*
G02*
X6564000Y-9822000I-40000J0D01*
G01*
X6564000Y-9822000D02*
G75*
G02*
X6644000Y-9822000I40000J0D01*
G01*
X6644000Y-10076000D02*
G75*
G02*
X6564000Y-10076000I-40000J0D01*
G01*
X6564000Y-10076000D02*
G75*
G02*
X6644000Y-10076000I40000J0D01*
G01*
X6898000Y-7536000D02*
G75*
G02*
X6818000Y-7536000I-40000J0D01*
G01*
X6818000Y-7536000D02*
G75*
G02*
X6898000Y-7536000I40000J0D01*
G01*
X6898000Y-7790000D02*
G75*
G02*
X6818000Y-7790000I-40000J0D01*
G01*
X6818000Y-7790000D02*
G75*
G02*
X6898000Y-7790000I40000J0D01*
G01*
X6898000Y-9822000D02*
G75*
G02*
X6818000Y-9822000I-40000J0D01*
G01*
X6818000Y-9822000D02*
G75*
G02*
X6898000Y-9822000I40000J0D01*
G01*
X6898000Y-10076000D02*
G75*
G02*
X6818000Y-10076000I-40000J0D01*
G01*
X6818000Y-10076000D02*
G75*
G02*
X6898000Y-10076000I40000J0D01*
G01*
X7152000Y-7536000D02*
G75*
G02*
X7072000Y-7536000I-40000J0D01*
G01*
X7072000Y-7536000D02*
G75*
G02*
X7152000Y-7536000I40000J0D01*
G01*
X7152000Y-7790000D02*
G75*
G02*
X7072000Y-7790000I-40000J0D01*
G01*
X7072000Y-7790000D02*
G75*
G02*
X7152000Y-7790000I40000J0D01*
G01*
X7152000Y-9822000D02*
G75*
G02*
X7072000Y-9822000I-40000J0D01*
G01*
X7072000Y-9822000D02*
G75*
G02*
X7152000Y-9822000I40000J0D01*
G01*
X7152000Y-10076000D02*
G75*
G02*
X7072000Y-10076000I-40000J0D01*
G01*
X7072000Y-10076000D02*
G75*
G02*
X7152000Y-10076000I40000J0D01*
G01*
X7406000Y-7536000D02*
G75*
G02*
X7326000Y-7536000I-40000J0D01*
G01*
X7326000Y-7536000D02*
G75*
G02*
X7406000Y-7536000I40000J0D01*
G01*
X7406000Y-7790000D02*
G75*
G02*
X7326000Y-7790000I-40000J0D01*
G01*
X7326000Y-7790000D02*
G75*
G02*
X7406000Y-7790000I40000J0D01*
G01*
X7406000Y-9822000D02*
G75*
G02*
X7326000Y-9822000I-40000J0D01*
G01*
X7326000Y-9822000D02*
G75*
G02*
X7406000Y-9822000I40000J0D01*
G01*
X7406000Y-10076000D02*
G75*
G02*
X7326000Y-10076000I-40000J0D01*
G01*
X7326000Y-10076000D02*
G75*
G02*
X7406000Y-10076000I40000J0D01*
G01*
X7660000Y-7536000D02*
G75*
G02*
X7580000Y-7536000I-40000J0D01*
G01*
X7580000Y-7536000D02*
G75*
G02*
X7660000Y-7536000I40000J0D01*
G01*
X7660000Y-7790000D02*
G75*
G02*
X7580000Y-7790000I-40000J0D01*
G01*
X7580000Y-7790000D02*
G75*
G02*
X7660000Y-7790000I40000J0D01*
G01*
X7660000Y-9822000D02*
G75*
G02*
X7580000Y-9822000I-40000J0D01*
G01*
X7580000Y-9822000D02*
G75*
G02*
X7660000Y-9822000I40000J0D01*
G01*
X7660000Y-10076000D02*
G75*
G02*
X7580000Y-10076000I-40000J0D01*
G01*
X7580000Y-10076000D02*
G75*
G02*
X7660000Y-10076000I40000J0D01*
G01*
X7914000Y-7536000D02*
G75*
G02*
X7834000Y-7536000I-40000J0D01*
G01*
X7834000Y-7536000D02*
G75*
G02*
X7914000Y-7536000I40000J0D01*
G01*
X7914000Y-7790000D02*
G75*
G02*
X7834000Y-7790000I-40000J0D01*
G01*
X7834000Y-7790000D02*
G75*
G02*
X7914000Y-7790000I40000J0D01*
G01*
X7914000Y-9822000D02*
G75*
G02*
X7834000Y-9822000I-40000J0D01*
G01*
X7834000Y-9822000D02*
G75*
G02*
X7914000Y-9822000I40000J0D01*
G01*
X7914000Y-10076000D02*
G75*
G02*
X7834000Y-10076000I-40000J0D01*
G01*
X7834000Y-10076000D02*
G75*
G02*
X7914000Y-10076000I40000J0D01*
G01*
X8168000Y-7536000D02*
G75*
G02*
X8088000Y-7536000I-40000J0D01*
G01*
X8088000Y-7536000D02*
G75*
G02*
X8168000Y-7536000I40000J0D01*
G01*
X8168000Y-7790000D02*
G75*
G02*
X8088000Y-7790000I-40000J0D01*
G01*
X8088000Y-7790000D02*
G75*
G02*
X8168000Y-7790000I40000J0D01*
G01*
X8168000Y-9822000D02*
G75*
G02*
X8088000Y-9822000I-40000J0D01*
G01*
X8088000Y-9822000D02*
G75*
G02*
X8168000Y-9822000I40000J0D01*
G01*
X8168000Y-10076000D02*
G75*
G02*
X8088000Y-10076000I-40000J0D01*
G01*
X8088000Y-10076000D02*
G75*
G02*
X8168000Y-10076000I40000J0D01*
G01*
X8422000Y-7536000D02*
G75*
G02*
X8342000Y-7536000I-40000J0D01*
G01*
X8342000Y-7536000D02*
G75*
G02*
X8422000Y-7536000I40000J0D01*
G01*
X8422000Y-7790000D02*
G75*
G02*
X8342000Y-7790000I-40000J0D01*
G01*
X8342000Y-7790000D02*
G75*
G02*
X8422000Y-7790000I40000J0D01*
G01*
X8422000Y-8044000D02*
G75*
G02*
X8342000Y-8044000I-40000J0D01*
G01*
X8342000Y-8044000D02*
G75*
G02*
X8422000Y-8044000I40000J0D01*
G01*
X8422000Y-8298000D02*
G75*
G02*
X8342000Y-8298000I-40000J0D01*
G01*
X8342000Y-8298000D02*
G75*
G02*
X8422000Y-8298000I40000J0D01*
G01*
X8422000Y-8552000D02*
G75*
G02*
X8342000Y-8552000I-40000J0D01*
G01*
X8342000Y-8552000D02*
G75*
G02*
X8422000Y-8552000I40000J0D01*
G01*
X8422000Y-8806000D02*
G75*
G02*
X8342000Y-8806000I-40000J0D01*
G01*
X8342000Y-8806000D02*
G75*
G02*
X8422000Y-8806000I40000J0D01*
G01*
X8422000Y-9060000D02*
G75*
G02*
X8342000Y-9060000I-40000J0D01*
G01*
X8342000Y-9060000D02*
G75*
G02*
X8422000Y-9060000I40000J0D01*
G01*
X8422000Y-9314000D02*
G75*
G02*
X8342000Y-9314000I-40000J0D01*
G01*
X8342000Y-9314000D02*
G75*
G02*
X8422000Y-9314000I40000J0D01*
G01*
X8422000Y-9568000D02*
G75*
G02*
X8342000Y-9568000I-40000J0D01*
G01*
X8342000Y-9568000D02*
G75*
G02*
X8422000Y-9568000I40000J0D01*
G01*
X8422000Y-9822000D02*
G75*
G02*
X8342000Y-9822000I-40000J0D01*
G01*
X8342000Y-9822000D02*
G75*
G02*
X8422000Y-9822000I40000J0D01*
G01*
X8422000Y-10076000D02*
G75*
G02*
X8342000Y-10076000I-40000J0D01*
G01*
X8342000Y-10076000D02*
G75*
G02*
X8422000Y-10076000I40000J0D01*
G01*
X8676000Y-7790000D02*
G75*
G02*
X8596000Y-7790000I-40000J0D01*
G01*
X8596000Y-7790000D02*
G75*
G02*
X8676000Y-7790000I40000J0D01*
G01*
X8676000Y-8044000D02*
G75*
G02*
X8596000Y-8044000I-40000J0D01*
G01*
X8596000Y-8044000D02*
G75*
G02*
X8676000Y-8044000I40000J0D01*
G01*
X8676000Y-8298000D02*
G75*
G02*
X8596000Y-8298000I-40000J0D01*
G01*
X8596000Y-8298000D02*
G75*
G02*
X8676000Y-8298000I40000J0D01*
G01*
X8676000Y-8552000D02*
G75*
G02*
X8596000Y-8552000I-40000J0D01*
G01*
X8596000Y-8552000D02*
G75*
G02*
X8676000Y-8552000I40000J0D01*
G01*
X8676000Y-8806000D02*
G75*
G02*
X8596000Y-8806000I-40000J0D01*
G01*
X8596000Y-8806000D02*
G75*
G02*
X8676000Y-8806000I40000J0D01*
G01*
X8676000Y-9060000D02*
G75*
G02*
X8596000Y-9060000I-40000J0D01*
G01*
X8596000Y-9060000D02*
G75*
G02*
X8676000Y-9060000I40000J0D01*
G01*
X8676000Y-9314000D02*
G75*
G02*
X8596000Y-9314000I-40000J0D01*
G01*
X8596000Y-9314000D02*
G75*
G02*
X8676000Y-9314000I40000J0D01*
G01*
X8676000Y-9568000D02*
G75*
G02*
X8596000Y-9568000I-40000J0D01*
G01*
X8596000Y-9568000D02*
G75*
G02*
X8676000Y-9568000I40000J0D01*
G01*
X8676000Y-9822000D02*
G75*
G02*
X8596000Y-9822000I-40000J0D01*
G01*
X8596000Y-9822000D02*
G75*
G02*
X8676000Y-9822000I40000J0D01*
G01*
X5080000Y-4945000D02*
X5080000Y-5045000D01*
X5030000Y-4995000D02*
X5130000Y-4995000D01*
X5080000Y-5199000D02*
X5080000Y-5299000D01*
X5030000Y-5249000D02*
X5130000Y-5249000D01*
X5080000Y-5453000D02*
X5080000Y-5553000D01*
X5030000Y-5503000D02*
X5130000Y-5503000D01*
X5080000Y-5707000D02*
X5080000Y-5807000D01*
X5030000Y-5757000D02*
X5130000Y-5757000D01*
X5080000Y-5961000D02*
X5080000Y-6061000D01*
X5030000Y-6011000D02*
X5130000Y-6011000D01*
X5080000Y-6215000D02*
X5080000Y-6315000D01*
X5030000Y-6265000D02*
X5130000Y-6265000D01*
X5080000Y-6469000D02*
X5080000Y-6569000D01*
X5030000Y-6519000D02*
X5130000Y-6519000D01*
X5080000Y-6723000D02*
X5080000Y-6823000D01*
X5030000Y-6773000D02*
X5130000Y-6773000D01*
X5080000Y-6977000D02*
X5080000Y-7077000D01*
X5030000Y-7027000D02*
X5130000Y-7027000D01*
X5080000Y-7231000D02*
X5080000Y-7331000D01*
X5030000Y-7281000D02*
X5130000Y-7281000D01*
X5080000Y-7485000D02*
X5080000Y-7585000D01*
X5030000Y-7535000D02*
X5130000Y-7535000D01*
X5080000Y-7739000D02*
X5080000Y-7839000D01*
X5030000Y-7789000D02*
X5130000Y-7789000D01*
X5080000Y-7993000D02*
X5080000Y-8093000D01*
X5030000Y-8043000D02*
X5130000Y-8043000D01*
X5080000Y-8247000D02*
X5080000Y-8347000D01*
X5030000Y-8297000D02*
X5130000Y-8297000D01*
X5080000Y-8501000D02*
X5080000Y-8601000D01*
X5030000Y-8551000D02*
X5130000Y-8551000D01*
X5080000Y-8755000D02*
X5080000Y-8855000D01*
X5030000Y-8805000D02*
X5130000Y-8805000D01*
X5080000Y-9009000D02*
X5080000Y-9109000D01*
X5030000Y-9059000D02*
X5130000Y-9059000D01*
X5080000Y-9263000D02*
X5080000Y-9363000D01*
X5030000Y-9313000D02*
X5130000Y-9313000D01*
X5080000Y-9517000D02*
X5080000Y-9617000D01*
X5030000Y-9567000D02*
X5130000Y-9567000D01*
X5080000Y-9771000D02*
X5080000Y-9871000D01*
X5030000Y-9821000D02*
X5130000Y-9821000D01*
X5080000Y-10025000D02*
X5080000Y-10125000D01*
X5030000Y-10075000D02*
X5130000Y-10075000D01*
X5080000Y-10279000D02*
X5080000Y-10379000D01*
X5030000Y-10329000D02*
X5130000Y-10329000D01*
X5080000Y-10533000D02*
X5080000Y-10633000D01*
X5030000Y-10583000D02*
X5130000Y-10583000D01*
X5080000Y-10787000D02*
X5080000Y-10887000D01*
X5030000Y-10837000D02*
X5130000Y-10837000D01*
X5080000Y-11041000D02*
X5080000Y-11141000D01*
X5030000Y-11091000D02*
X5130000Y-11091000D01*
X5080000Y-11295000D02*
X5080000Y-11395000D01*
X5030000Y-11345000D02*
X5130000Y-11345000D01*
X5080000Y-11549000D02*
X5080000Y-11649000D01*
X5030000Y-11599000D02*
X5130000Y-11599000D01*
X5080000Y-11803000D02*
X5080000Y-11903000D01*
X5030000Y-11853000D02*
X5130000Y-11853000D01*
X5080000Y-12057000D02*
X5080000Y-12157000D01*
X5030000Y-12107000D02*
X5130000Y-12107000D01*
X5080000Y-12311000D02*
X5080000Y-12411000D01*
X5030000Y-12361000D02*
X5130000Y-12361000D01*
X5080000Y-12565000D02*
X5080000Y-12665000D01*
X5030000Y-12615000D02*
X5130000Y-12615000D01*
X9652000Y-4946000D02*
X9652000Y-5046000D01*
X9602000Y-4996000D02*
X9702000Y-4996000D01*
X9652000Y-5200000D02*
X9652000Y-5300000D01*
X9602000Y-5250000D02*
X9702000Y-5250000D01*
X9652000Y-5454000D02*
X9652000Y-5554000D01*
X9602000Y-5504000D02*
X9702000Y-5504000D01*
X9652000Y-5708000D02*
X9652000Y-5808000D01*
X9602000Y-5758000D02*
X9702000Y-5758000D01*
X9652000Y-5962000D02*
X9652000Y-6062000D01*
X9602000Y-6012000D02*
X9702000Y-6012000D01*
X9652000Y-6216000D02*
X9652000Y-6316000D01*
X9602000Y-6266000D02*
X9702000Y-6266000D01*
X9652000Y-6470000D02*
X9652000Y-6570000D01*
X9602000Y-6520000D02*
X9702000Y-6520000D01*
X9652000Y-6724000D02*
X9652000Y-6824000D01*
X9602000Y-6774000D02*
X9702000Y-6774000D01*
X9652000Y-6978000D02*
X9652000Y-7078000D01*
X9602000Y-7028000D02*
X9702000Y-7028000D01*
X9652000Y-7232000D02*
X9652000Y-7332000D01*
X9602000Y-7282000D02*
X9702000Y-7282000D01*
X9652000Y-7486000D02*
X9652000Y-7586000D01*
X9602000Y-7536000D02*
X9702000Y-7536000D01*
X9652000Y-7740000D02*
X9652000Y-7840000D01*
X9602000Y-7790000D02*
X9702000Y-7790000D01*
X9652000Y-7994000D02*
X9652000Y-8094000D01*
X9602000Y-8044000D02*
X9702000Y-8044000D01*
X9652000Y-8248000D02*
X9652000Y-8348000D01*
X9602000Y-8298000D02*
X9702000Y-8298000D01*
X9652000Y-8502000D02*
X9652000Y-8602000D01*
X9602000Y-8552000D02*
X9702000Y-8552000D01*
X9652000Y-8756000D02*
X9652000Y-8856000D01*
X9602000Y-8806000D02*
X9702000Y-8806000D01*
X9652000Y-9010000D02*
X9652000Y-9110000D01*
X9602000Y-9060000D02*
X9702000Y-9060000D01*
X9652000Y-9264000D02*
X9652000Y-9364000D01*
X9602000Y-9314000D02*
X9702000Y-9314000D01*
X9652000Y-9518000D02*
X9652000Y-9618000D01*
X9602000Y-9568000D02*
X9702000Y-9568000D01*
X9652000Y-9772000D02*
X9652000Y-9872000D01*
X9602000Y-9822000D02*
X9702000Y-9822000D01*
X9652000Y-10026000D02*
X9652000Y-10126000D01*
X9602000Y-10076000D02*
X9702000Y-10076000D01*
X9652000Y-10280000D02*
X9652000Y-10380000D01*
X9602000Y-10330000D02*
X9702000Y-10330000D01*
X9652000Y-10534000D02*
X9652000Y-10634000D01*
X9602000Y-10584000D02*
X9702000Y-10584000D01*
X9652000Y-10788000D02*
X9652000Y-10888000D01*
X9602000Y-10838000D02*
X9702000Y-10838000D01*
X9652000Y-11042000D02*
X9652000Y-11142000D01*
X9602000Y-11092000D02*
X9702000Y-11092000D01*
X9652000Y-11296000D02*
X9652000Y-11396000D01*
X9602000Y-11346000D02*
X9702000Y-11346000D01*
X9652000Y-11550000D02*
X9652000Y-11650000D01*
X9602000Y-11600000D02*
X9702000Y-11600000D01*
X9652000Y-11804000D02*
X9652000Y-11904000D01*
X9602000Y-11854000D02*
X9702000Y-11854000D01*
X9652000Y-12058000D02*
X9652000Y-12158000D01*
X9602000Y-12108000D02*
X9702000Y-12108000D01*
X9652000Y-12312000D02*
X9652000Y-12412000D01*
X9602000Y-12362000D02*
X9702000Y-12362000D01*
X9652000Y-12566000D02*
X9652000Y-12666000D01*
X9602000Y-12616000D02*
X9702000Y-12616000D01*
D11*
X5084277Y-13195684D02*
X5084277Y-12995684D01*
X5084277Y-12995684D02*
X5131896Y-12995684D01*
X5131896Y-12995684D02*
X5160467Y-13005208D01*
X5160467Y-13005208D02*
X5179515Y-13024255D01*
X5179515Y-13024255D02*
X5189039Y-13043303D01*
X5189039Y-13043303D02*
X5198563Y-13081398D01*
X5198563Y-13081398D02*
X5198563Y-13109969D01*
X5198563Y-13109969D02*
X5189039Y-13148065D01*
X5189039Y-13148065D02*
X5179515Y-13167112D01*
X5179515Y-13167112D02*
X5160467Y-13186160D01*
X5160467Y-13186160D02*
X5131896Y-13195684D01*
X5131896Y-13195684D02*
X5084277Y-13195684D01*
X5284277Y-13195684D02*
X5284277Y-13062350D01*
X5284277Y-13100446D02*
X5293801Y-13081398D01*
X5293801Y-13081398D02*
X5303324Y-13071874D01*
X5303324Y-13071874D02*
X5322372Y-13062350D01*
X5322372Y-13062350D02*
X5341420Y-13062350D01*
X5408086Y-13195684D02*
X5408086Y-13062350D01*
X5408086Y-12995684D02*
X5398563Y-13005208D01*
X5398563Y-13005208D02*
X5408086Y-13014731D01*
X5408086Y-13014731D02*
X5417610Y-13005208D01*
X5417610Y-13005208D02*
X5408086Y-12995684D01*
X5408086Y-12995684D02*
X5408086Y-13014731D01*
X5531896Y-13195684D02*
X5512848Y-13186160D01*
X5512848Y-13186160D02*
X5503324Y-13167112D01*
X5503324Y-13167112D02*
X5503324Y-12995684D01*
X5636658Y-13195684D02*
X5617610Y-13186160D01*
X5617610Y-13186160D02*
X5608086Y-13167112D01*
X5608086Y-13167112D02*
X5608086Y-12995684D01*
X5865229Y-13195684D02*
X5865229Y-12995684D01*
X5865229Y-12995684D02*
X5931896Y-13138541D01*
X5931896Y-13138541D02*
X5998562Y-12995684D01*
X5998562Y-12995684D02*
X5998562Y-13195684D01*
X6179515Y-13195684D02*
X6179515Y-13090922D01*
X6179515Y-13090922D02*
X6169991Y-13071874D01*
X6169991Y-13071874D02*
X6150943Y-13062350D01*
X6150943Y-13062350D02*
X6112848Y-13062350D01*
X6112848Y-13062350D02*
X6093801Y-13071874D01*
X6179515Y-13186160D02*
X6160467Y-13195684D01*
X6160467Y-13195684D02*
X6112848Y-13195684D01*
X6112848Y-13195684D02*
X6093801Y-13186160D01*
X6093801Y-13186160D02*
X6084277Y-13167112D01*
X6084277Y-13167112D02*
X6084277Y-13148065D01*
X6084277Y-13148065D02*
X6093801Y-13129017D01*
X6093801Y-13129017D02*
X6112848Y-13119493D01*
X6112848Y-13119493D02*
X6160467Y-13119493D01*
X6160467Y-13119493D02*
X6179515Y-13109969D01*
X6274753Y-13062350D02*
X6274753Y-13262350D01*
X6274753Y-13071874D02*
X6293801Y-13062350D01*
X6293801Y-13062350D02*
X6331896Y-13062350D01*
X6331896Y-13062350D02*
X6350943Y-13071874D01*
X6350943Y-13071874D02*
X6360467Y-13081398D01*
X6360467Y-13081398D02*
X6369991Y-13100446D01*
X6369991Y-13100446D02*
X6369991Y-13157588D01*
X6369991Y-13157588D02*
X6360467Y-13176636D01*
X6360467Y-13176636D02*
X6350943Y-13186160D01*
X6350943Y-13186160D02*
X6331896Y-13195684D01*
X6331896Y-13195684D02*
X6293801Y-13195684D01*
X6293801Y-13195684D02*
X6274753Y-13186160D01*
X6455705Y-13176636D02*
X6465229Y-13186160D01*
X6465229Y-13186160D02*
X6455705Y-13195684D01*
X6455705Y-13195684D02*
X6446182Y-13186160D01*
X6446182Y-13186160D02*
X6455705Y-13176636D01*
X6455705Y-13176636D02*
X6455705Y-13195684D01*
X6455705Y-13071874D02*
X6465229Y-13081398D01*
X6465229Y-13081398D02*
X6455705Y-13090922D01*
X6455705Y-13090922D02*
X6446182Y-13081398D01*
X6446182Y-13081398D02*
X6455705Y-13071874D01*
X6455705Y-13071874D02*
X6455705Y-13090922D01*
D12*
X4793500Y-13509200D02*
X4823500Y-13539200D01*
X4823500Y-13509200D02*
X4793500Y-13539200D01*
D11*
X5122372Y-13415684D02*
X5141420Y-13415684D01*
X5141420Y-13415684D02*
X5160467Y-13425208D01*
X5160467Y-13425208D02*
X5169991Y-13434731D01*
X5169991Y-13434731D02*
X5179515Y-13453779D01*
X5179515Y-13453779D02*
X5189039Y-13491874D01*
X5189039Y-13491874D02*
X5189039Y-13539493D01*
X5189039Y-13539493D02*
X5179515Y-13577588D01*
X5179515Y-13577588D02*
X5169991Y-13596636D01*
X5169991Y-13596636D02*
X5160467Y-13606160D01*
X5160467Y-13606160D02*
X5141420Y-13615684D01*
X5141420Y-13615684D02*
X5122372Y-13615684D01*
X5122372Y-13615684D02*
X5103324Y-13606160D01*
X5103324Y-13606160D02*
X5093801Y-13596636D01*
X5093801Y-13596636D02*
X5084277Y-13577588D01*
X5084277Y-13577588D02*
X5074753Y-13539493D01*
X5074753Y-13539493D02*
X5074753Y-13491874D01*
X5074753Y-13491874D02*
X5084277Y-13453779D01*
X5084277Y-13453779D02*
X5093801Y-13434731D01*
X5093801Y-13434731D02*
X5103324Y-13425208D01*
X5103324Y-13425208D02*
X5122372Y-13415684D01*
X5274753Y-13596636D02*
X5284277Y-13606160D01*
X5284277Y-13606160D02*
X5274753Y-13615684D01*
X5274753Y-13615684D02*
X5265229Y-13606160D01*
X5265229Y-13606160D02*
X5274753Y-13596636D01*
X5274753Y-13596636D02*
X5274753Y-13615684D01*
X5350944Y-13415684D02*
X5474753Y-13415684D01*
X5474753Y-13415684D02*
X5408086Y-13491874D01*
X5408086Y-13491874D02*
X5436658Y-13491874D01*
X5436658Y-13491874D02*
X5455705Y-13501398D01*
X5455705Y-13501398D02*
X5465229Y-13510922D01*
X5465229Y-13510922D02*
X5474753Y-13529969D01*
X5474753Y-13529969D02*
X5474753Y-13577588D01*
X5474753Y-13577588D02*
X5465229Y-13596636D01*
X5465229Y-13596636D02*
X5455705Y-13606160D01*
X5455705Y-13606160D02*
X5436658Y-13615684D01*
X5436658Y-13615684D02*
X5379515Y-13615684D01*
X5379515Y-13615684D02*
X5360467Y-13606160D01*
X5360467Y-13606160D02*
X5350944Y-13596636D01*
X5598562Y-13415684D02*
X5617610Y-13415684D01*
X5617610Y-13415684D02*
X5636658Y-13425208D01*
X5636658Y-13425208D02*
X5646182Y-13434731D01*
X5646182Y-13434731D02*
X5655705Y-13453779D01*
X5655705Y-13453779D02*
X5665229Y-13491874D01*
X5665229Y-13491874D02*
X5665229Y-13539493D01*
X5665229Y-13539493D02*
X5655705Y-13577588D01*
X5655705Y-13577588D02*
X5646182Y-13596636D01*
X5646182Y-13596636D02*
X5636658Y-13606160D01*
X5636658Y-13606160D02*
X5617610Y-13615684D01*
X5617610Y-13615684D02*
X5598562Y-13615684D01*
X5598562Y-13615684D02*
X5579515Y-13606160D01*
X5579515Y-13606160D02*
X5569991Y-13596636D01*
X5569991Y-13596636D02*
X5560467Y-13577588D01*
X5560467Y-13577588D02*
X5550944Y-13539493D01*
X5550944Y-13539493D02*
X5550944Y-13491874D01*
X5550944Y-13491874D02*
X5560467Y-13453779D01*
X5560467Y-13453779D02*
X5569991Y-13434731D01*
X5569991Y-13434731D02*
X5579515Y-13425208D01*
X5579515Y-13425208D02*
X5598562Y-13415684D01*
X5789039Y-13415684D02*
X5808086Y-13415684D01*
X5808086Y-13415684D02*
X5827134Y-13425208D01*
X5827134Y-13425208D02*
X5836658Y-13434731D01*
X5836658Y-13434731D02*
X5846182Y-13453779D01*
X5846182Y-13453779D02*
X5855705Y-13491874D01*
X5855705Y-13491874D02*
X5855705Y-13539493D01*
X5855705Y-13539493D02*
X5846182Y-13577588D01*
X5846182Y-13577588D02*
X5836658Y-13596636D01*
X5836658Y-13596636D02*
X5827134Y-13606160D01*
X5827134Y-13606160D02*
X5808086Y-13615684D01*
X5808086Y-13615684D02*
X5789039Y-13615684D01*
X5789039Y-13615684D02*
X5769991Y-13606160D01*
X5769991Y-13606160D02*
X5760467Y-13596636D01*
X5760467Y-13596636D02*
X5750943Y-13577588D01*
X5750943Y-13577588D02*
X5741420Y-13539493D01*
X5741420Y-13539493D02*
X5741420Y-13491874D01*
X5741420Y-13491874D02*
X5750943Y-13453779D01*
X5750943Y-13453779D02*
X5760467Y-13434731D01*
X5760467Y-13434731D02*
X5769991Y-13425208D01*
X5769991Y-13425208D02*
X5789039Y-13415684D01*
X5941420Y-13615684D02*
X5941420Y-13482350D01*
X5941420Y-13501398D02*
X5950943Y-13491874D01*
X5950943Y-13491874D02*
X5969991Y-13482350D01*
X5969991Y-13482350D02*
X5998563Y-13482350D01*
X5998563Y-13482350D02*
X6017610Y-13491874D01*
X6017610Y-13491874D02*
X6027134Y-13510922D01*
X6027134Y-13510922D02*
X6027134Y-13615684D01*
X6027134Y-13510922D02*
X6036658Y-13491874D01*
X6036658Y-13491874D02*
X6055705Y-13482350D01*
X6055705Y-13482350D02*
X6084277Y-13482350D01*
X6084277Y-13482350D02*
X6103324Y-13491874D01*
X6103324Y-13491874D02*
X6112848Y-13510922D01*
X6112848Y-13510922D02*
X6112848Y-13615684D01*
X6208086Y-13615684D02*
X6208086Y-13482350D01*
X6208086Y-13501398D02*
X6217610Y-13491874D01*
X6217610Y-13491874D02*
X6236658Y-13482350D01*
X6236658Y-13482350D02*
X6265229Y-13482350D01*
X6265229Y-13482350D02*
X6284277Y-13491874D01*
X6284277Y-13491874D02*
X6293801Y-13510922D01*
X6293801Y-13510922D02*
X6293801Y-13615684D01*
X6293801Y-13510922D02*
X6303324Y-13491874D01*
X6303324Y-13491874D02*
X6322372Y-13482350D01*
X6322372Y-13482350D02*
X6350943Y-13482350D01*
X6350943Y-13482350D02*
X6369991Y-13491874D01*
X6369991Y-13491874D02*
X6379515Y-13510922D01*
X6379515Y-13510922D02*
X6379515Y-13615684D01*
X6769991Y-13406160D02*
X6598563Y-13663303D01*
X7027134Y-13415684D02*
X7046182Y-13415684D01*
X7046182Y-13415684D02*
X7065229Y-13425208D01*
X7065229Y-13425208D02*
X7074753Y-13434731D01*
X7074753Y-13434731D02*
X7084277Y-13453779D01*
X7084277Y-13453779D02*
X7093801Y-13491874D01*
X7093801Y-13491874D02*
X7093801Y-13539493D01*
X7093801Y-13539493D02*
X7084277Y-13577588D01*
X7084277Y-13577588D02*
X7074753Y-13596636D01*
X7074753Y-13596636D02*
X7065229Y-13606160D01*
X7065229Y-13606160D02*
X7046182Y-13615684D01*
X7046182Y-13615684D02*
X7027134Y-13615684D01*
X7027134Y-13615684D02*
X7008086Y-13606160D01*
X7008086Y-13606160D02*
X6998563Y-13596636D01*
X6998563Y-13596636D02*
X6989039Y-13577588D01*
X6989039Y-13577588D02*
X6979515Y-13539493D01*
X6979515Y-13539493D02*
X6979515Y-13491874D01*
X6979515Y-13491874D02*
X6989039Y-13453779D01*
X6989039Y-13453779D02*
X6998563Y-13434731D01*
X6998563Y-13434731D02*
X7008086Y-13425208D01*
X7008086Y-13425208D02*
X7027134Y-13415684D01*
X7179515Y-13596636D02*
X7189039Y-13606160D01*
X7189039Y-13606160D02*
X7179515Y-13615684D01*
X7179515Y-13615684D02*
X7169991Y-13606160D01*
X7169991Y-13606160D02*
X7179515Y-13596636D01*
X7179515Y-13596636D02*
X7179515Y-13615684D01*
X7312848Y-13415684D02*
X7331896Y-13415684D01*
X7331896Y-13415684D02*
X7350944Y-13425208D01*
X7350944Y-13425208D02*
X7360467Y-13434731D01*
X7360467Y-13434731D02*
X7369991Y-13453779D01*
X7369991Y-13453779D02*
X7379515Y-13491874D01*
X7379515Y-13491874D02*
X7379515Y-13539493D01*
X7379515Y-13539493D02*
X7369991Y-13577588D01*
X7369991Y-13577588D02*
X7360467Y-13596636D01*
X7360467Y-13596636D02*
X7350944Y-13606160D01*
X7350944Y-13606160D02*
X7331896Y-13615684D01*
X7331896Y-13615684D02*
X7312848Y-13615684D01*
X7312848Y-13615684D02*
X7293801Y-13606160D01*
X7293801Y-13606160D02*
X7284277Y-13596636D01*
X7284277Y-13596636D02*
X7274753Y-13577588D01*
X7274753Y-13577588D02*
X7265229Y-13539493D01*
X7265229Y-13539493D02*
X7265229Y-13491874D01*
X7265229Y-13491874D02*
X7274753Y-13453779D01*
X7274753Y-13453779D02*
X7284277Y-13434731D01*
X7284277Y-13434731D02*
X7293801Y-13425208D01*
X7293801Y-13425208D02*
X7312848Y-13415684D01*
X7569991Y-13615684D02*
X7455706Y-13615684D01*
X7512848Y-13615684D02*
X7512848Y-13415684D01*
X7512848Y-13415684D02*
X7493801Y-13444255D01*
X7493801Y-13444255D02*
X7474753Y-13463303D01*
X7474753Y-13463303D02*
X7455706Y-13472827D01*
X7760467Y-13615684D02*
X7646182Y-13615684D01*
X7703325Y-13615684D02*
X7703325Y-13415684D01*
X7703325Y-13415684D02*
X7684277Y-13444255D01*
X7684277Y-13444255D02*
X7665229Y-13463303D01*
X7665229Y-13463303D02*
X7646182Y-13472827D01*
X7874753Y-13501398D02*
X7855706Y-13491874D01*
X7855706Y-13491874D02*
X7846182Y-13482350D01*
X7846182Y-13482350D02*
X7836658Y-13463303D01*
X7836658Y-13463303D02*
X7836658Y-13453779D01*
X7836658Y-13453779D02*
X7846182Y-13434731D01*
X7846182Y-13434731D02*
X7855706Y-13425208D01*
X7855706Y-13425208D02*
X7874753Y-13415684D01*
X7874753Y-13415684D02*
X7912848Y-13415684D01*
X7912848Y-13415684D02*
X7931896Y-13425208D01*
X7931896Y-13425208D02*
X7941420Y-13434731D01*
X7941420Y-13434731D02*
X7950944Y-13453779D01*
X7950944Y-13453779D02*
X7950944Y-13463303D01*
X7950944Y-13463303D02*
X7941420Y-13482350D01*
X7941420Y-13482350D02*
X7931896Y-13491874D01*
X7931896Y-13491874D02*
X7912848Y-13501398D01*
X7912848Y-13501398D02*
X7874753Y-13501398D01*
X7874753Y-13501398D02*
X7855706Y-13510922D01*
X7855706Y-13510922D02*
X7846182Y-13520446D01*
X7846182Y-13520446D02*
X7836658Y-13539493D01*
X7836658Y-13539493D02*
X7836658Y-13577588D01*
X7836658Y-13577588D02*
X7846182Y-13596636D01*
X7846182Y-13596636D02*
X7855706Y-13606160D01*
X7855706Y-13606160D02*
X7874753Y-13615684D01*
X7874753Y-13615684D02*
X7912848Y-13615684D01*
X7912848Y-13615684D02*
X7931896Y-13606160D01*
X7931896Y-13606160D02*
X7941420Y-13596636D01*
X7941420Y-13596636D02*
X7950944Y-13577588D01*
X7950944Y-13577588D02*
X7950944Y-13539493D01*
X7950944Y-13539493D02*
X7941420Y-13520446D01*
X7941420Y-13520446D02*
X7931896Y-13510922D01*
X7931896Y-13510922D02*
X7912848Y-13501398D01*
X8027134Y-13415684D02*
X8027134Y-13453779D01*
X8103325Y-13415684D02*
X8103325Y-13453779D01*
X8398563Y-13691874D02*
X8389039Y-13682350D01*
X8389039Y-13682350D02*
X8369991Y-13653779D01*
X8369991Y-13653779D02*
X8360468Y-13634731D01*
X8360468Y-13634731D02*
X8350944Y-13606160D01*
X8350944Y-13606160D02*
X8341420Y-13558541D01*
X8341420Y-13558541D02*
X8341420Y-13520446D01*
X8341420Y-13520446D02*
X8350944Y-13472827D01*
X8350944Y-13472827D02*
X8360468Y-13444255D01*
X8360468Y-13444255D02*
X8369991Y-13425208D01*
X8369991Y-13425208D02*
X8389039Y-13396636D01*
X8389039Y-13396636D02*
X8398563Y-13387112D01*
X8455706Y-13415684D02*
X8589039Y-13415684D01*
X8589039Y-13415684D02*
X8503325Y-13615684D01*
X8817611Y-13615684D02*
X8817611Y-13415684D01*
X8903325Y-13615684D02*
X8903325Y-13510922D01*
X8903325Y-13510922D02*
X8893801Y-13491874D01*
X8893801Y-13491874D02*
X8874753Y-13482350D01*
X8874753Y-13482350D02*
X8846182Y-13482350D01*
X8846182Y-13482350D02*
X8827134Y-13491874D01*
X8827134Y-13491874D02*
X8817611Y-13501398D01*
X9027134Y-13615684D02*
X9008087Y-13606160D01*
X9008087Y-13606160D02*
X8998563Y-13596636D01*
X8998563Y-13596636D02*
X8989039Y-13577588D01*
X8989039Y-13577588D02*
X8989039Y-13520446D01*
X8989039Y-13520446D02*
X8998563Y-13501398D01*
X8998563Y-13501398D02*
X9008087Y-13491874D01*
X9008087Y-13491874D02*
X9027134Y-13482350D01*
X9027134Y-13482350D02*
X9055706Y-13482350D01*
X9055706Y-13482350D02*
X9074753Y-13491874D01*
X9074753Y-13491874D02*
X9084277Y-13501398D01*
X9084277Y-13501398D02*
X9093801Y-13520446D01*
X9093801Y-13520446D02*
X9093801Y-13577588D01*
X9093801Y-13577588D02*
X9084277Y-13596636D01*
X9084277Y-13596636D02*
X9074753Y-13606160D01*
X9074753Y-13606160D02*
X9055706Y-13615684D01*
X9055706Y-13615684D02*
X9027134Y-13615684D01*
X9208087Y-13615684D02*
X9189039Y-13606160D01*
X9189039Y-13606160D02*
X9179515Y-13587112D01*
X9179515Y-13587112D02*
X9179515Y-13415684D01*
X9360468Y-13606160D02*
X9341420Y-13615684D01*
X9341420Y-13615684D02*
X9303325Y-13615684D01*
X9303325Y-13615684D02*
X9284277Y-13606160D01*
X9284277Y-13606160D02*
X9274753Y-13587112D01*
X9274753Y-13587112D02*
X9274753Y-13510922D01*
X9274753Y-13510922D02*
X9284277Y-13491874D01*
X9284277Y-13491874D02*
X9303325Y-13482350D01*
X9303325Y-13482350D02*
X9341420Y-13482350D01*
X9341420Y-13482350D02*
X9360468Y-13491874D01*
X9360468Y-13491874D02*
X9369992Y-13510922D01*
X9369992Y-13510922D02*
X9369992Y-13529969D01*
X9369992Y-13529969D02*
X9274753Y-13549017D01*
X9446182Y-13606160D02*
X9465230Y-13615684D01*
X9465230Y-13615684D02*
X9503325Y-13615684D01*
X9503325Y-13615684D02*
X9522373Y-13606160D01*
X9522373Y-13606160D02*
X9531896Y-13587112D01*
X9531896Y-13587112D02*
X9531896Y-13577588D01*
X9531896Y-13577588D02*
X9522373Y-13558541D01*
X9522373Y-13558541D02*
X9503325Y-13549017D01*
X9503325Y-13549017D02*
X9474753Y-13549017D01*
X9474753Y-13549017D02*
X9455706Y-13539493D01*
X9455706Y-13539493D02*
X9446182Y-13520446D01*
X9446182Y-13520446D02*
X9446182Y-13510922D01*
X9446182Y-13510922D02*
X9455706Y-13491874D01*
X9455706Y-13491874D02*
X9474753Y-13482350D01*
X9474753Y-13482350D02*
X9503325Y-13482350D01*
X9503325Y-13482350D02*
X9522373Y-13491874D01*
X9598563Y-13691874D02*
X9608087Y-13682350D01*
X9608087Y-13682350D02*
X9627134Y-13653779D01*
X9627134Y-13653779D02*
X9636658Y-13634731D01*
X9636658Y-13634731D02*
X9646182Y-13606160D01*
X9646182Y-13606160D02*
X9655706Y-13558541D01*
X9655706Y-13558541D02*
X9655706Y-13520446D01*
X9655706Y-13520446D02*
X9646182Y-13472827D01*
X9646182Y-13472827D02*
X9636658Y-13444255D01*
X9636658Y-13444255D02*
X9627134Y-13425208D01*
X9627134Y-13425208D02*
X9608087Y-13396636D01*
X9608087Y-13396636D02*
X9598563Y-13387112D01*
D12*
X4823500Y-13788200D02*
G75*
G02*
X4743500Y-13788200I-40000J0D01*
G01*
X4743500Y-13788200D02*
G75*
G02*
X4823500Y-13788200I40000J0D01*
G01*
D11*
X5122372Y-13679684D02*
X5141420Y-13679684D01*
X5141420Y-13679684D02*
X5160467Y-13689208D01*
X5160467Y-13689208D02*
X5169991Y-13698731D01*
X5169991Y-13698731D02*
X5179515Y-13717779D01*
X5179515Y-13717779D02*
X5189039Y-13755874D01*
X5189039Y-13755874D02*
X5189039Y-13803493D01*
X5189039Y-13803493D02*
X5179515Y-13841588D01*
X5179515Y-13841588D02*
X5169991Y-13860636D01*
X5169991Y-13860636D02*
X5160467Y-13870160D01*
X5160467Y-13870160D02*
X5141420Y-13879684D01*
X5141420Y-13879684D02*
X5122372Y-13879684D01*
X5122372Y-13879684D02*
X5103324Y-13870160D01*
X5103324Y-13870160D02*
X5093801Y-13860636D01*
X5093801Y-13860636D02*
X5084277Y-13841588D01*
X5084277Y-13841588D02*
X5074753Y-13803493D01*
X5074753Y-13803493D02*
X5074753Y-13755874D01*
X5074753Y-13755874D02*
X5084277Y-13717779D01*
X5084277Y-13717779D02*
X5093801Y-13698731D01*
X5093801Y-13698731D02*
X5103324Y-13689208D01*
X5103324Y-13689208D02*
X5122372Y-13679684D01*
X5274753Y-13860636D02*
X5284277Y-13870160D01*
X5284277Y-13870160D02*
X5274753Y-13879684D01*
X5274753Y-13879684D02*
X5265229Y-13870160D01*
X5265229Y-13870160D02*
X5274753Y-13860636D01*
X5274753Y-13860636D02*
X5274753Y-13879684D01*
X5398563Y-13765398D02*
X5379515Y-13755874D01*
X5379515Y-13755874D02*
X5369991Y-13746350D01*
X5369991Y-13746350D02*
X5360467Y-13727303D01*
X5360467Y-13727303D02*
X5360467Y-13717779D01*
X5360467Y-13717779D02*
X5369991Y-13698731D01*
X5369991Y-13698731D02*
X5379515Y-13689208D01*
X5379515Y-13689208D02*
X5398563Y-13679684D01*
X5398563Y-13679684D02*
X5436658Y-13679684D01*
X5436658Y-13679684D02*
X5455705Y-13689208D01*
X5455705Y-13689208D02*
X5465229Y-13698731D01*
X5465229Y-13698731D02*
X5474753Y-13717779D01*
X5474753Y-13717779D02*
X5474753Y-13727303D01*
X5474753Y-13727303D02*
X5465229Y-13746350D01*
X5465229Y-13746350D02*
X5455705Y-13755874D01*
X5455705Y-13755874D02*
X5436658Y-13765398D01*
X5436658Y-13765398D02*
X5398563Y-13765398D01*
X5398563Y-13765398D02*
X5379515Y-13774922D01*
X5379515Y-13774922D02*
X5369991Y-13784446D01*
X5369991Y-13784446D02*
X5360467Y-13803493D01*
X5360467Y-13803493D02*
X5360467Y-13841588D01*
X5360467Y-13841588D02*
X5369991Y-13860636D01*
X5369991Y-13860636D02*
X5379515Y-13870160D01*
X5379515Y-13870160D02*
X5398563Y-13879684D01*
X5398563Y-13879684D02*
X5436658Y-13879684D01*
X5436658Y-13879684D02*
X5455705Y-13870160D01*
X5455705Y-13870160D02*
X5465229Y-13860636D01*
X5465229Y-13860636D02*
X5474753Y-13841588D01*
X5474753Y-13841588D02*
X5474753Y-13803493D01*
X5474753Y-13803493D02*
X5465229Y-13784446D01*
X5465229Y-13784446D02*
X5455705Y-13774922D01*
X5455705Y-13774922D02*
X5436658Y-13765398D01*
X5598562Y-13679684D02*
X5617610Y-13679684D01*
X5617610Y-13679684D02*
X5636658Y-13689208D01*
X5636658Y-13689208D02*
X5646182Y-13698731D01*
X5646182Y-13698731D02*
X5655705Y-13717779D01*
X5655705Y-13717779D02*
X5665229Y-13755874D01*
X5665229Y-13755874D02*
X5665229Y-13803493D01*
X5665229Y-13803493D02*
X5655705Y-13841588D01*
X5655705Y-13841588D02*
X5646182Y-13860636D01*
X5646182Y-13860636D02*
X5636658Y-13870160D01*
X5636658Y-13870160D02*
X5617610Y-13879684D01*
X5617610Y-13879684D02*
X5598562Y-13879684D01*
X5598562Y-13879684D02*
X5579515Y-13870160D01*
X5579515Y-13870160D02*
X5569991Y-13860636D01*
X5569991Y-13860636D02*
X5560467Y-13841588D01*
X5560467Y-13841588D02*
X5550944Y-13803493D01*
X5550944Y-13803493D02*
X5550944Y-13755874D01*
X5550944Y-13755874D02*
X5560467Y-13717779D01*
X5560467Y-13717779D02*
X5569991Y-13698731D01*
X5569991Y-13698731D02*
X5579515Y-13689208D01*
X5579515Y-13689208D02*
X5598562Y-13679684D01*
X5789039Y-13679684D02*
X5808086Y-13679684D01*
X5808086Y-13679684D02*
X5827134Y-13689208D01*
X5827134Y-13689208D02*
X5836658Y-13698731D01*
X5836658Y-13698731D02*
X5846182Y-13717779D01*
X5846182Y-13717779D02*
X5855705Y-13755874D01*
X5855705Y-13755874D02*
X5855705Y-13803493D01*
X5855705Y-13803493D02*
X5846182Y-13841588D01*
X5846182Y-13841588D02*
X5836658Y-13860636D01*
X5836658Y-13860636D02*
X5827134Y-13870160D01*
X5827134Y-13870160D02*
X5808086Y-13879684D01*
X5808086Y-13879684D02*
X5789039Y-13879684D01*
X5789039Y-13879684D02*
X5769991Y-13870160D01*
X5769991Y-13870160D02*
X5760467Y-13860636D01*
X5760467Y-13860636D02*
X5750943Y-13841588D01*
X5750943Y-13841588D02*
X5741420Y-13803493D01*
X5741420Y-13803493D02*
X5741420Y-13755874D01*
X5741420Y-13755874D02*
X5750943Y-13717779D01*
X5750943Y-13717779D02*
X5760467Y-13698731D01*
X5760467Y-13698731D02*
X5769991Y-13689208D01*
X5769991Y-13689208D02*
X5789039Y-13679684D01*
X5941420Y-13879684D02*
X5941420Y-13746350D01*
X5941420Y-13765398D02*
X5950943Y-13755874D01*
X5950943Y-13755874D02*
X5969991Y-13746350D01*
X5969991Y-13746350D02*
X5998563Y-13746350D01*
X5998563Y-13746350D02*
X6017610Y-13755874D01*
X6017610Y-13755874D02*
X6027134Y-13774922D01*
X6027134Y-13774922D02*
X6027134Y-13879684D01*
X6027134Y-13774922D02*
X6036658Y-13755874D01*
X6036658Y-13755874D02*
X6055705Y-13746350D01*
X6055705Y-13746350D02*
X6084277Y-13746350D01*
X6084277Y-13746350D02*
X6103324Y-13755874D01*
X6103324Y-13755874D02*
X6112848Y-13774922D01*
X6112848Y-13774922D02*
X6112848Y-13879684D01*
X6208086Y-13879684D02*
X6208086Y-13746350D01*
X6208086Y-13765398D02*
X6217610Y-13755874D01*
X6217610Y-13755874D02*
X6236658Y-13746350D01*
X6236658Y-13746350D02*
X6265229Y-13746350D01*
X6265229Y-13746350D02*
X6284277Y-13755874D01*
X6284277Y-13755874D02*
X6293801Y-13774922D01*
X6293801Y-13774922D02*
X6293801Y-13879684D01*
X6293801Y-13774922D02*
X6303324Y-13755874D01*
X6303324Y-13755874D02*
X6322372Y-13746350D01*
X6322372Y-13746350D02*
X6350943Y-13746350D01*
X6350943Y-13746350D02*
X6369991Y-13755874D01*
X6369991Y-13755874D02*
X6379515Y-13774922D01*
X6379515Y-13774922D02*
X6379515Y-13879684D01*
X6769991Y-13670160D02*
X6598563Y-13927303D01*
X7027134Y-13679684D02*
X7046182Y-13679684D01*
X7046182Y-13679684D02*
X7065229Y-13689208D01*
X7065229Y-13689208D02*
X7074753Y-13698731D01*
X7074753Y-13698731D02*
X7084277Y-13717779D01*
X7084277Y-13717779D02*
X7093801Y-13755874D01*
X7093801Y-13755874D02*
X7093801Y-13803493D01*
X7093801Y-13803493D02*
X7084277Y-13841588D01*
X7084277Y-13841588D02*
X7074753Y-13860636D01*
X7074753Y-13860636D02*
X7065229Y-13870160D01*
X7065229Y-13870160D02*
X7046182Y-13879684D01*
X7046182Y-13879684D02*
X7027134Y-13879684D01*
X7027134Y-13879684D02*
X7008086Y-13870160D01*
X7008086Y-13870160D02*
X6998563Y-13860636D01*
X6998563Y-13860636D02*
X6989039Y-13841588D01*
X6989039Y-13841588D02*
X6979515Y-13803493D01*
X6979515Y-13803493D02*
X6979515Y-13755874D01*
X6979515Y-13755874D02*
X6989039Y-13717779D01*
X6989039Y-13717779D02*
X6998563Y-13698731D01*
X6998563Y-13698731D02*
X7008086Y-13689208D01*
X7008086Y-13689208D02*
X7027134Y-13679684D01*
X7179515Y-13860636D02*
X7189039Y-13870160D01*
X7189039Y-13870160D02*
X7179515Y-13879684D01*
X7179515Y-13879684D02*
X7169991Y-13870160D01*
X7169991Y-13870160D02*
X7179515Y-13860636D01*
X7179515Y-13860636D02*
X7179515Y-13879684D01*
X7312848Y-13679684D02*
X7331896Y-13679684D01*
X7331896Y-13679684D02*
X7350944Y-13689208D01*
X7350944Y-13689208D02*
X7360467Y-13698731D01*
X7360467Y-13698731D02*
X7369991Y-13717779D01*
X7369991Y-13717779D02*
X7379515Y-13755874D01*
X7379515Y-13755874D02*
X7379515Y-13803493D01*
X7379515Y-13803493D02*
X7369991Y-13841588D01*
X7369991Y-13841588D02*
X7360467Y-13860636D01*
X7360467Y-13860636D02*
X7350944Y-13870160D01*
X7350944Y-13870160D02*
X7331896Y-13879684D01*
X7331896Y-13879684D02*
X7312848Y-13879684D01*
X7312848Y-13879684D02*
X7293801Y-13870160D01*
X7293801Y-13870160D02*
X7284277Y-13860636D01*
X7284277Y-13860636D02*
X7274753Y-13841588D01*
X7274753Y-13841588D02*
X7265229Y-13803493D01*
X7265229Y-13803493D02*
X7265229Y-13755874D01*
X7265229Y-13755874D02*
X7274753Y-13717779D01*
X7274753Y-13717779D02*
X7284277Y-13698731D01*
X7284277Y-13698731D02*
X7293801Y-13689208D01*
X7293801Y-13689208D02*
X7312848Y-13679684D01*
X7446182Y-13679684D02*
X7569991Y-13679684D01*
X7569991Y-13679684D02*
X7503325Y-13755874D01*
X7503325Y-13755874D02*
X7531896Y-13755874D01*
X7531896Y-13755874D02*
X7550944Y-13765398D01*
X7550944Y-13765398D02*
X7560467Y-13774922D01*
X7560467Y-13774922D02*
X7569991Y-13793969D01*
X7569991Y-13793969D02*
X7569991Y-13841588D01*
X7569991Y-13841588D02*
X7560467Y-13860636D01*
X7560467Y-13860636D02*
X7550944Y-13870160D01*
X7550944Y-13870160D02*
X7531896Y-13879684D01*
X7531896Y-13879684D02*
X7474753Y-13879684D01*
X7474753Y-13879684D02*
X7455706Y-13870160D01*
X7455706Y-13870160D02*
X7446182Y-13860636D01*
X7760467Y-13879684D02*
X7646182Y-13879684D01*
X7703325Y-13879684D02*
X7703325Y-13679684D01*
X7703325Y-13679684D02*
X7684277Y-13708255D01*
X7684277Y-13708255D02*
X7665229Y-13727303D01*
X7665229Y-13727303D02*
X7646182Y-13736827D01*
X7941420Y-13679684D02*
X7846182Y-13679684D01*
X7846182Y-13679684D02*
X7836658Y-13774922D01*
X7836658Y-13774922D02*
X7846182Y-13765398D01*
X7846182Y-13765398D02*
X7865229Y-13755874D01*
X7865229Y-13755874D02*
X7912848Y-13755874D01*
X7912848Y-13755874D02*
X7931896Y-13765398D01*
X7931896Y-13765398D02*
X7941420Y-13774922D01*
X7941420Y-13774922D02*
X7950944Y-13793969D01*
X7950944Y-13793969D02*
X7950944Y-13841588D01*
X7950944Y-13841588D02*
X7941420Y-13860636D01*
X7941420Y-13860636D02*
X7931896Y-13870160D01*
X7931896Y-13870160D02*
X7912848Y-13879684D01*
X7912848Y-13879684D02*
X7865229Y-13879684D01*
X7865229Y-13879684D02*
X7846182Y-13870160D01*
X7846182Y-13870160D02*
X7836658Y-13860636D01*
X8027134Y-13679684D02*
X8027134Y-13717779D01*
X8103325Y-13679684D02*
X8103325Y-13717779D01*
X8398563Y-13955874D02*
X8389039Y-13946350D01*
X8389039Y-13946350D02*
X8369991Y-13917779D01*
X8369991Y-13917779D02*
X8360468Y-13898731D01*
X8360468Y-13898731D02*
X8350944Y-13870160D01*
X8350944Y-13870160D02*
X8341420Y-13822541D01*
X8341420Y-13822541D02*
X8341420Y-13784446D01*
X8341420Y-13784446D02*
X8350944Y-13736827D01*
X8350944Y-13736827D02*
X8360468Y-13708255D01*
X8360468Y-13708255D02*
X8369991Y-13689208D01*
X8369991Y-13689208D02*
X8389039Y-13660636D01*
X8389039Y-13660636D02*
X8398563Y-13651112D01*
X8560468Y-13679684D02*
X8522372Y-13679684D01*
X8522372Y-13679684D02*
X8503325Y-13689208D01*
X8503325Y-13689208D02*
X8493801Y-13698731D01*
X8493801Y-13698731D02*
X8474753Y-13727303D01*
X8474753Y-13727303D02*
X8465230Y-13765398D01*
X8465230Y-13765398D02*
X8465230Y-13841588D01*
X8465230Y-13841588D02*
X8474753Y-13860636D01*
X8474753Y-13860636D02*
X8484277Y-13870160D01*
X8484277Y-13870160D02*
X8503325Y-13879684D01*
X8503325Y-13879684D02*
X8541420Y-13879684D01*
X8541420Y-13879684D02*
X8560468Y-13870160D01*
X8560468Y-13870160D02*
X8569991Y-13860636D01*
X8569991Y-13860636D02*
X8579515Y-13841588D01*
X8579515Y-13841588D02*
X8579515Y-13793969D01*
X8579515Y-13793969D02*
X8569991Y-13774922D01*
X8569991Y-13774922D02*
X8560468Y-13765398D01*
X8560468Y-13765398D02*
X8541420Y-13755874D01*
X8541420Y-13755874D02*
X8503325Y-13755874D01*
X8503325Y-13755874D02*
X8484277Y-13765398D01*
X8484277Y-13765398D02*
X8474753Y-13774922D01*
X8474753Y-13774922D02*
X8465230Y-13793969D01*
X8693801Y-13765398D02*
X8674753Y-13755874D01*
X8674753Y-13755874D02*
X8665230Y-13746350D01*
X8665230Y-13746350D02*
X8655706Y-13727303D01*
X8655706Y-13727303D02*
X8655706Y-13717779D01*
X8655706Y-13717779D02*
X8665230Y-13698731D01*
X8665230Y-13698731D02*
X8674753Y-13689208D01*
X8674753Y-13689208D02*
X8693801Y-13679684D01*
X8693801Y-13679684D02*
X8731896Y-13679684D01*
X8731896Y-13679684D02*
X8750944Y-13689208D01*
X8750944Y-13689208D02*
X8760468Y-13698731D01*
X8760468Y-13698731D02*
X8769991Y-13717779D01*
X8769991Y-13717779D02*
X8769991Y-13727303D01*
X8769991Y-13727303D02*
X8760468Y-13746350D01*
X8760468Y-13746350D02*
X8750944Y-13755874D01*
X8750944Y-13755874D02*
X8731896Y-13765398D01*
X8731896Y-13765398D02*
X8693801Y-13765398D01*
X8693801Y-13765398D02*
X8674753Y-13774922D01*
X8674753Y-13774922D02*
X8665230Y-13784446D01*
X8665230Y-13784446D02*
X8655706Y-13803493D01*
X8655706Y-13803493D02*
X8655706Y-13841588D01*
X8655706Y-13841588D02*
X8665230Y-13860636D01*
X8665230Y-13860636D02*
X8674753Y-13870160D01*
X8674753Y-13870160D02*
X8693801Y-13879684D01*
X8693801Y-13879684D02*
X8731896Y-13879684D01*
X8731896Y-13879684D02*
X8750944Y-13870160D01*
X8750944Y-13870160D02*
X8760468Y-13860636D01*
X8760468Y-13860636D02*
X8769991Y-13841588D01*
X8769991Y-13841588D02*
X8769991Y-13803493D01*
X8769991Y-13803493D02*
X8760468Y-13784446D01*
X8760468Y-13784446D02*
X8750944Y-13774922D01*
X8750944Y-13774922D02*
X8731896Y-13765398D01*
X9008087Y-13879684D02*
X9008087Y-13679684D01*
X9093801Y-13879684D02*
X9093801Y-13774922D01*
X9093801Y-13774922D02*
X9084277Y-13755874D01*
X9084277Y-13755874D02*
X9065230Y-13746350D01*
X9065230Y-13746350D02*
X9036658Y-13746350D01*
X9036658Y-13746350D02*
X9017611Y-13755874D01*
X9017611Y-13755874D02*
X9008087Y-13765398D01*
X9217611Y-13879684D02*
X9198563Y-13870160D01*
X9198563Y-13870160D02*
X9189039Y-13860636D01*
X9189039Y-13860636D02*
X9179515Y-13841588D01*
X9179515Y-13841588D02*
X9179515Y-13784446D01*
X9179515Y-13784446D02*
X9189039Y-13765398D01*
X9189039Y-13765398D02*
X9198563Y-13755874D01*
X9198563Y-13755874D02*
X9217611Y-13746350D01*
X9217611Y-13746350D02*
X9246182Y-13746350D01*
X9246182Y-13746350D02*
X9265230Y-13755874D01*
X9265230Y-13755874D02*
X9274753Y-13765398D01*
X9274753Y-13765398D02*
X9284277Y-13784446D01*
X9284277Y-13784446D02*
X9284277Y-13841588D01*
X9284277Y-13841588D02*
X9274753Y-13860636D01*
X9274753Y-13860636D02*
X9265230Y-13870160D01*
X9265230Y-13870160D02*
X9246182Y-13879684D01*
X9246182Y-13879684D02*
X9217611Y-13879684D01*
X9398563Y-13879684D02*
X9379515Y-13870160D01*
X9379515Y-13870160D02*
X9369992Y-13851112D01*
X9369992Y-13851112D02*
X9369992Y-13679684D01*
X9550944Y-13870160D02*
X9531896Y-13879684D01*
X9531896Y-13879684D02*
X9493801Y-13879684D01*
X9493801Y-13879684D02*
X9474753Y-13870160D01*
X9474753Y-13870160D02*
X9465230Y-13851112D01*
X9465230Y-13851112D02*
X9465230Y-13774922D01*
X9465230Y-13774922D02*
X9474753Y-13755874D01*
X9474753Y-13755874D02*
X9493801Y-13746350D01*
X9493801Y-13746350D02*
X9531896Y-13746350D01*
X9531896Y-13746350D02*
X9550944Y-13755874D01*
X9550944Y-13755874D02*
X9560468Y-13774922D01*
X9560468Y-13774922D02*
X9560468Y-13793969D01*
X9560468Y-13793969D02*
X9465230Y-13813017D01*
X9636658Y-13870160D02*
X9655706Y-13879684D01*
X9655706Y-13879684D02*
X9693801Y-13879684D01*
X9693801Y-13879684D02*
X9712849Y-13870160D01*
X9712849Y-13870160D02*
X9722373Y-13851112D01*
X9722373Y-13851112D02*
X9722373Y-13841588D01*
X9722373Y-13841588D02*
X9712849Y-13822541D01*
X9712849Y-13822541D02*
X9693801Y-13813017D01*
X9693801Y-13813017D02*
X9665230Y-13813017D01*
X9665230Y-13813017D02*
X9646182Y-13803493D01*
X9646182Y-13803493D02*
X9636658Y-13784446D01*
X9636658Y-13784446D02*
X9636658Y-13774922D01*
X9636658Y-13774922D02*
X9646182Y-13755874D01*
X9646182Y-13755874D02*
X9665230Y-13746350D01*
X9665230Y-13746350D02*
X9693801Y-13746350D01*
X9693801Y-13746350D02*
X9712849Y-13755874D01*
X9789039Y-13955874D02*
X9798563Y-13946350D01*
X9798563Y-13946350D02*
X9817611Y-13917779D01*
X9817611Y-13917779D02*
X9827134Y-13898731D01*
X9827134Y-13898731D02*
X9836658Y-13870160D01*
X9836658Y-13870160D02*
X9846182Y-13822541D01*
X9846182Y-13822541D02*
X9846182Y-13784446D01*
X9846182Y-13784446D02*
X9836658Y-13736827D01*
X9836658Y-13736827D02*
X9827134Y-13708255D01*
X9827134Y-13708255D02*
X9817611Y-13689208D01*
X9817611Y-13689208D02*
X9798563Y-13660636D01*
X9798563Y-13660636D02*
X9789039Y-13651112D01*
D12*
X4773500Y-14002200D02*
X4773500Y-14102200D01*
X4723500Y-14052200D02*
X4823500Y-14052200D01*
D11*
X5189039Y-14143684D02*
X5074753Y-14143684D01*
X5131896Y-14143684D02*
X5131896Y-13943684D01*
X5131896Y-13943684D02*
X5112848Y-13972255D01*
X5112848Y-13972255D02*
X5093801Y-13991303D01*
X5093801Y-13991303D02*
X5074753Y-14000827D01*
X5274753Y-14124636D02*
X5284277Y-14134160D01*
X5284277Y-14134160D02*
X5274753Y-14143684D01*
X5274753Y-14143684D02*
X5265229Y-14134160D01*
X5265229Y-14134160D02*
X5274753Y-14124636D01*
X5274753Y-14124636D02*
X5274753Y-14143684D01*
X5408086Y-13943684D02*
X5427134Y-13943684D01*
X5427134Y-13943684D02*
X5446182Y-13953208D01*
X5446182Y-13953208D02*
X5455705Y-13962731D01*
X5455705Y-13962731D02*
X5465229Y-13981779D01*
X5465229Y-13981779D02*
X5474753Y-14019874D01*
X5474753Y-14019874D02*
X5474753Y-14067493D01*
X5474753Y-14067493D02*
X5465229Y-14105588D01*
X5465229Y-14105588D02*
X5455705Y-14124636D01*
X5455705Y-14124636D02*
X5446182Y-14134160D01*
X5446182Y-14134160D02*
X5427134Y-14143684D01*
X5427134Y-14143684D02*
X5408086Y-14143684D01*
X5408086Y-14143684D02*
X5389039Y-14134160D01*
X5389039Y-14134160D02*
X5379515Y-14124636D01*
X5379515Y-14124636D02*
X5369991Y-14105588D01*
X5369991Y-14105588D02*
X5360467Y-14067493D01*
X5360467Y-14067493D02*
X5360467Y-14019874D01*
X5360467Y-14019874D02*
X5369991Y-13981779D01*
X5369991Y-13981779D02*
X5379515Y-13962731D01*
X5379515Y-13962731D02*
X5389039Y-13953208D01*
X5389039Y-13953208D02*
X5408086Y-13943684D01*
X5598562Y-13943684D02*
X5617610Y-13943684D01*
X5617610Y-13943684D02*
X5636658Y-13953208D01*
X5636658Y-13953208D02*
X5646182Y-13962731D01*
X5646182Y-13962731D02*
X5655705Y-13981779D01*
X5655705Y-13981779D02*
X5665229Y-14019874D01*
X5665229Y-14019874D02*
X5665229Y-14067493D01*
X5665229Y-14067493D02*
X5655705Y-14105588D01*
X5655705Y-14105588D02*
X5646182Y-14124636D01*
X5646182Y-14124636D02*
X5636658Y-14134160D01*
X5636658Y-14134160D02*
X5617610Y-14143684D01*
X5617610Y-14143684D02*
X5598562Y-14143684D01*
X5598562Y-14143684D02*
X5579515Y-14134160D01*
X5579515Y-14134160D02*
X5569991Y-14124636D01*
X5569991Y-14124636D02*
X5560467Y-14105588D01*
X5560467Y-14105588D02*
X5550944Y-14067493D01*
X5550944Y-14067493D02*
X5550944Y-14019874D01*
X5550944Y-14019874D02*
X5560467Y-13981779D01*
X5560467Y-13981779D02*
X5569991Y-13962731D01*
X5569991Y-13962731D02*
X5579515Y-13953208D01*
X5579515Y-13953208D02*
X5598562Y-13943684D01*
X5789039Y-13943684D02*
X5808086Y-13943684D01*
X5808086Y-13943684D02*
X5827134Y-13953208D01*
X5827134Y-13953208D02*
X5836658Y-13962731D01*
X5836658Y-13962731D02*
X5846182Y-13981779D01*
X5846182Y-13981779D02*
X5855705Y-14019874D01*
X5855705Y-14019874D02*
X5855705Y-14067493D01*
X5855705Y-14067493D02*
X5846182Y-14105588D01*
X5846182Y-14105588D02*
X5836658Y-14124636D01*
X5836658Y-14124636D02*
X5827134Y-14134160D01*
X5827134Y-14134160D02*
X5808086Y-14143684D01*
X5808086Y-14143684D02*
X5789039Y-14143684D01*
X5789039Y-14143684D02*
X5769991Y-14134160D01*
X5769991Y-14134160D02*
X5760467Y-14124636D01*
X5760467Y-14124636D02*
X5750943Y-14105588D01*
X5750943Y-14105588D02*
X5741420Y-14067493D01*
X5741420Y-14067493D02*
X5741420Y-14019874D01*
X5741420Y-14019874D02*
X5750943Y-13981779D01*
X5750943Y-13981779D02*
X5760467Y-13962731D01*
X5760467Y-13962731D02*
X5769991Y-13953208D01*
X5769991Y-13953208D02*
X5789039Y-13943684D01*
X5941420Y-14143684D02*
X5941420Y-14010350D01*
X5941420Y-14029398D02*
X5950943Y-14019874D01*
X5950943Y-14019874D02*
X5969991Y-14010350D01*
X5969991Y-14010350D02*
X5998563Y-14010350D01*
X5998563Y-14010350D02*
X6017610Y-14019874D01*
X6017610Y-14019874D02*
X6027134Y-14038922D01*
X6027134Y-14038922D02*
X6027134Y-14143684D01*
X6027134Y-14038922D02*
X6036658Y-14019874D01*
X6036658Y-14019874D02*
X6055705Y-14010350D01*
X6055705Y-14010350D02*
X6084277Y-14010350D01*
X6084277Y-14010350D02*
X6103324Y-14019874D01*
X6103324Y-14019874D02*
X6112848Y-14038922D01*
X6112848Y-14038922D02*
X6112848Y-14143684D01*
X6208086Y-14143684D02*
X6208086Y-14010350D01*
X6208086Y-14029398D02*
X6217610Y-14019874D01*
X6217610Y-14019874D02*
X6236658Y-14010350D01*
X6236658Y-14010350D02*
X6265229Y-14010350D01*
X6265229Y-14010350D02*
X6284277Y-14019874D01*
X6284277Y-14019874D02*
X6293801Y-14038922D01*
X6293801Y-14038922D02*
X6293801Y-14143684D01*
X6293801Y-14038922D02*
X6303324Y-14019874D01*
X6303324Y-14019874D02*
X6322372Y-14010350D01*
X6322372Y-14010350D02*
X6350943Y-14010350D01*
X6350943Y-14010350D02*
X6369991Y-14019874D01*
X6369991Y-14019874D02*
X6379515Y-14038922D01*
X6379515Y-14038922D02*
X6379515Y-14143684D01*
X6769991Y-13934160D02*
X6598563Y-14191303D01*
X7027134Y-13943684D02*
X7046182Y-13943684D01*
X7046182Y-13943684D02*
X7065229Y-13953208D01*
X7065229Y-13953208D02*
X7074753Y-13962731D01*
X7074753Y-13962731D02*
X7084277Y-13981779D01*
X7084277Y-13981779D02*
X7093801Y-14019874D01*
X7093801Y-14019874D02*
X7093801Y-14067493D01*
X7093801Y-14067493D02*
X7084277Y-14105588D01*
X7084277Y-14105588D02*
X7074753Y-14124636D01*
X7074753Y-14124636D02*
X7065229Y-14134160D01*
X7065229Y-14134160D02*
X7046182Y-14143684D01*
X7046182Y-14143684D02*
X7027134Y-14143684D01*
X7027134Y-14143684D02*
X7008086Y-14134160D01*
X7008086Y-14134160D02*
X6998563Y-14124636D01*
X6998563Y-14124636D02*
X6989039Y-14105588D01*
X6989039Y-14105588D02*
X6979515Y-14067493D01*
X6979515Y-14067493D02*
X6979515Y-14019874D01*
X6979515Y-14019874D02*
X6989039Y-13981779D01*
X6989039Y-13981779D02*
X6998563Y-13962731D01*
X6998563Y-13962731D02*
X7008086Y-13953208D01*
X7008086Y-13953208D02*
X7027134Y-13943684D01*
X7179515Y-14124636D02*
X7189039Y-14134160D01*
X7189039Y-14134160D02*
X7179515Y-14143684D01*
X7179515Y-14143684D02*
X7169991Y-14134160D01*
X7169991Y-14134160D02*
X7179515Y-14124636D01*
X7179515Y-14124636D02*
X7179515Y-14143684D01*
X7312848Y-13943684D02*
X7331896Y-13943684D01*
X7331896Y-13943684D02*
X7350944Y-13953208D01*
X7350944Y-13953208D02*
X7360467Y-13962731D01*
X7360467Y-13962731D02*
X7369991Y-13981779D01*
X7369991Y-13981779D02*
X7379515Y-14019874D01*
X7379515Y-14019874D02*
X7379515Y-14067493D01*
X7379515Y-14067493D02*
X7369991Y-14105588D01*
X7369991Y-14105588D02*
X7360467Y-14124636D01*
X7360467Y-14124636D02*
X7350944Y-14134160D01*
X7350944Y-14134160D02*
X7331896Y-14143684D01*
X7331896Y-14143684D02*
X7312848Y-14143684D01*
X7312848Y-14143684D02*
X7293801Y-14134160D01*
X7293801Y-14134160D02*
X7284277Y-14124636D01*
X7284277Y-14124636D02*
X7274753Y-14105588D01*
X7274753Y-14105588D02*
X7265229Y-14067493D01*
X7265229Y-14067493D02*
X7265229Y-14019874D01*
X7265229Y-14019874D02*
X7274753Y-13981779D01*
X7274753Y-13981779D02*
X7284277Y-13962731D01*
X7284277Y-13962731D02*
X7293801Y-13953208D01*
X7293801Y-13953208D02*
X7312848Y-13943684D01*
X7446182Y-13943684D02*
X7569991Y-13943684D01*
X7569991Y-13943684D02*
X7503325Y-14019874D01*
X7503325Y-14019874D02*
X7531896Y-14019874D01*
X7531896Y-14019874D02*
X7550944Y-14029398D01*
X7550944Y-14029398D02*
X7560467Y-14038922D01*
X7560467Y-14038922D02*
X7569991Y-14057969D01*
X7569991Y-14057969D02*
X7569991Y-14105588D01*
X7569991Y-14105588D02*
X7560467Y-14124636D01*
X7560467Y-14124636D02*
X7550944Y-14134160D01*
X7550944Y-14134160D02*
X7531896Y-14143684D01*
X7531896Y-14143684D02*
X7474753Y-14143684D01*
X7474753Y-14143684D02*
X7455706Y-14134160D01*
X7455706Y-14134160D02*
X7446182Y-14124636D01*
X7665229Y-14143684D02*
X7703325Y-14143684D01*
X7703325Y-14143684D02*
X7722372Y-14134160D01*
X7722372Y-14134160D02*
X7731896Y-14124636D01*
X7731896Y-14124636D02*
X7750944Y-14096065D01*
X7750944Y-14096065D02*
X7760467Y-14057969D01*
X7760467Y-14057969D02*
X7760467Y-13981779D01*
X7760467Y-13981779D02*
X7750944Y-13962731D01*
X7750944Y-13962731D02*
X7741420Y-13953208D01*
X7741420Y-13953208D02*
X7722372Y-13943684D01*
X7722372Y-13943684D02*
X7684277Y-13943684D01*
X7684277Y-13943684D02*
X7665229Y-13953208D01*
X7665229Y-13953208D02*
X7655706Y-13962731D01*
X7655706Y-13962731D02*
X7646182Y-13981779D01*
X7646182Y-13981779D02*
X7646182Y-14029398D01*
X7646182Y-14029398D02*
X7655706Y-14048446D01*
X7655706Y-14048446D02*
X7665229Y-14057969D01*
X7665229Y-14057969D02*
X7684277Y-14067493D01*
X7684277Y-14067493D02*
X7722372Y-14067493D01*
X7722372Y-14067493D02*
X7741420Y-14057969D01*
X7741420Y-14057969D02*
X7750944Y-14048446D01*
X7750944Y-14048446D02*
X7760467Y-14029398D01*
X7931896Y-14010350D02*
X7931896Y-14143684D01*
X7884277Y-13934160D02*
X7836658Y-14077017D01*
X7836658Y-14077017D02*
X7960467Y-14077017D01*
X8027134Y-13943684D02*
X8027134Y-13981779D01*
X8103325Y-13943684D02*
X8103325Y-13981779D01*
X8398563Y-14219874D02*
X8389039Y-14210350D01*
X8389039Y-14210350D02*
X8369991Y-14181779D01*
X8369991Y-14181779D02*
X8360468Y-14162731D01*
X8360468Y-14162731D02*
X8350944Y-14134160D01*
X8350944Y-14134160D02*
X8341420Y-14086541D01*
X8341420Y-14086541D02*
X8341420Y-14048446D01*
X8341420Y-14048446D02*
X8350944Y-14000827D01*
X8350944Y-14000827D02*
X8360468Y-13972255D01*
X8360468Y-13972255D02*
X8369991Y-13953208D01*
X8369991Y-13953208D02*
X8389039Y-13924636D01*
X8389039Y-13924636D02*
X8398563Y-13915112D01*
X8560468Y-13943684D02*
X8522372Y-13943684D01*
X8522372Y-13943684D02*
X8503325Y-13953208D01*
X8503325Y-13953208D02*
X8493801Y-13962731D01*
X8493801Y-13962731D02*
X8474753Y-13991303D01*
X8474753Y-13991303D02*
X8465230Y-14029398D01*
X8465230Y-14029398D02*
X8465230Y-14105588D01*
X8465230Y-14105588D02*
X8474753Y-14124636D01*
X8474753Y-14124636D02*
X8484277Y-14134160D01*
X8484277Y-14134160D02*
X8503325Y-14143684D01*
X8503325Y-14143684D02*
X8541420Y-14143684D01*
X8541420Y-14143684D02*
X8560468Y-14134160D01*
X8560468Y-14134160D02*
X8569991Y-14124636D01*
X8569991Y-14124636D02*
X8579515Y-14105588D01*
X8579515Y-14105588D02*
X8579515Y-14057969D01*
X8579515Y-14057969D02*
X8569991Y-14038922D01*
X8569991Y-14038922D02*
X8560468Y-14029398D01*
X8560468Y-14029398D02*
X8541420Y-14019874D01*
X8541420Y-14019874D02*
X8503325Y-14019874D01*
X8503325Y-14019874D02*
X8484277Y-14029398D01*
X8484277Y-14029398D02*
X8474753Y-14038922D01*
X8474753Y-14038922D02*
X8465230Y-14057969D01*
X8655706Y-13962731D02*
X8665230Y-13953208D01*
X8665230Y-13953208D02*
X8684277Y-13943684D01*
X8684277Y-13943684D02*
X8731896Y-13943684D01*
X8731896Y-13943684D02*
X8750944Y-13953208D01*
X8750944Y-13953208D02*
X8760468Y-13962731D01*
X8760468Y-13962731D02*
X8769991Y-13981779D01*
X8769991Y-13981779D02*
X8769991Y-14000827D01*
X8769991Y-14000827D02*
X8760468Y-14029398D01*
X8760468Y-14029398D02*
X8646182Y-14143684D01*
X8646182Y-14143684D02*
X8769991Y-14143684D01*
X9008087Y-14143684D02*
X9008087Y-13943684D01*
X9093801Y-14143684D02*
X9093801Y-14038922D01*
X9093801Y-14038922D02*
X9084277Y-14019874D01*
X9084277Y-14019874D02*
X9065230Y-14010350D01*
X9065230Y-14010350D02*
X9036658Y-14010350D01*
X9036658Y-14010350D02*
X9017611Y-14019874D01*
X9017611Y-14019874D02*
X9008087Y-14029398D01*
X9217611Y-14143684D02*
X9198563Y-14134160D01*
X9198563Y-14134160D02*
X9189039Y-14124636D01*
X9189039Y-14124636D02*
X9179515Y-14105588D01*
X9179515Y-14105588D02*
X9179515Y-14048446D01*
X9179515Y-14048446D02*
X9189039Y-14029398D01*
X9189039Y-14029398D02*
X9198563Y-14019874D01*
X9198563Y-14019874D02*
X9217611Y-14010350D01*
X9217611Y-14010350D02*
X9246182Y-14010350D01*
X9246182Y-14010350D02*
X9265230Y-14019874D01*
X9265230Y-14019874D02*
X9274753Y-14029398D01*
X9274753Y-14029398D02*
X9284277Y-14048446D01*
X9284277Y-14048446D02*
X9284277Y-14105588D01*
X9284277Y-14105588D02*
X9274753Y-14124636D01*
X9274753Y-14124636D02*
X9265230Y-14134160D01*
X9265230Y-14134160D02*
X9246182Y-14143684D01*
X9246182Y-14143684D02*
X9217611Y-14143684D01*
X9398563Y-14143684D02*
X9379515Y-14134160D01*
X9379515Y-14134160D02*
X9369992Y-14115112D01*
X9369992Y-14115112D02*
X9369992Y-13943684D01*
X9550944Y-14134160D02*
X9531896Y-14143684D01*
X9531896Y-14143684D02*
X9493801Y-14143684D01*
X9493801Y-14143684D02*
X9474753Y-14134160D01*
X9474753Y-14134160D02*
X9465230Y-14115112D01*
X9465230Y-14115112D02*
X9465230Y-14038922D01*
X9465230Y-14038922D02*
X9474753Y-14019874D01*
X9474753Y-14019874D02*
X9493801Y-14010350D01*
X9493801Y-14010350D02*
X9531896Y-14010350D01*
X9531896Y-14010350D02*
X9550944Y-14019874D01*
X9550944Y-14019874D02*
X9560468Y-14038922D01*
X9560468Y-14038922D02*
X9560468Y-14057969D01*
X9560468Y-14057969D02*
X9465230Y-14077017D01*
X9636658Y-14134160D02*
X9655706Y-14143684D01*
X9655706Y-14143684D02*
X9693801Y-14143684D01*
X9693801Y-14143684D02*
X9712849Y-14134160D01*
X9712849Y-14134160D02*
X9722373Y-14115112D01*
X9722373Y-14115112D02*
X9722373Y-14105588D01*
X9722373Y-14105588D02*
X9712849Y-14086541D01*
X9712849Y-14086541D02*
X9693801Y-14077017D01*
X9693801Y-14077017D02*
X9665230Y-14077017D01*
X9665230Y-14077017D02*
X9646182Y-14067493D01*
X9646182Y-14067493D02*
X9636658Y-14048446D01*
X9636658Y-14048446D02*
X9636658Y-14038922D01*
X9636658Y-14038922D02*
X9646182Y-14019874D01*
X9646182Y-14019874D02*
X9665230Y-14010350D01*
X9665230Y-14010350D02*
X9693801Y-14010350D01*
X9693801Y-14010350D02*
X9712849Y-14019874D01*
X9789039Y-14219874D02*
X9798563Y-14210350D01*
X9798563Y-14210350D02*
X9817611Y-14181779D01*
X9817611Y-14181779D02*
X9827134Y-14162731D01*
X9827134Y-14162731D02*
X9836658Y-14134160D01*
X9836658Y-14134160D02*
X9846182Y-14086541D01*
X9846182Y-14086541D02*
X9846182Y-14048446D01*
X9846182Y-14048446D02*
X9836658Y-14000827D01*
X9836658Y-14000827D02*
X9827134Y-13972255D01*
X9827134Y-13972255D02*
X9817611Y-13953208D01*
X9817611Y-13953208D02*
X9798563Y-13924636D01*
X9798563Y-13924636D02*
X9789039Y-13915112D01*
M02*
