G04 #@! TF.GenerationSoftware,KiCad,Pcbnew,9.0.1*
G04 #@! TF.CreationDate,2025-04-04T22:38:55+02:00*
G04 #@! TF.ProjectId,80286,38303238-362e-46b6-9963-61645f706362,rev?*
G04 #@! TF.SameCoordinates,Original*
G04 #@! TF.FileFunction,Copper,L1,Top*
G04 #@! TF.FilePolarity,Positive*
%FSLAX46Y46*%
G04 Gerber Fmt 4.6, Leading zero omitted, Abs format (unit mm)*
G04 Created by KiCad (PCBNEW 9.0.1) date 2025-04-04 22:38:55*
%MOMM*%
%LPD*%
G01*
G04 APERTURE LIST*
G04 #@! TA.AperFunction,ComponentPad*
%ADD10C,1.422400*%
G04 #@! TD*
G04 #@! TA.AperFunction,ComponentPad*
%ADD11R,1.422400X1.422400*%
G04 #@! TD*
G04 #@! TA.AperFunction,ComponentPad*
%ADD12C,1.700000*%
G04 #@! TD*
G04 #@! TA.AperFunction,ComponentPad*
%ADD13R,1.700000X1.700000*%
G04 #@! TD*
G04 #@! TA.AperFunction,ViaPad*
%ADD14C,0.600000*%
G04 #@! TD*
G04 #@! TA.AperFunction,Conductor*
%ADD15C,0.200000*%
G04 #@! TD*
G04 APERTURE END LIST*
D10*
X76200000Y-77900000D03*
X76200000Y-75360000D03*
X78740000Y-77900000D03*
X78740000Y-75360000D03*
X81280000Y-77900000D03*
X81280000Y-75360000D03*
X83820000Y-77900000D03*
X83820000Y-75360000D03*
X86360000Y-77900000D03*
X83820000Y-80440000D03*
X86360000Y-80440000D03*
X83820000Y-82980000D03*
X86360000Y-82980000D03*
X83820000Y-85520000D03*
X86360000Y-85520000D03*
X83820000Y-88060000D03*
X86360000Y-88060000D03*
X83820000Y-90600000D03*
X86360000Y-90600000D03*
X83820000Y-93140000D03*
X86360000Y-93140000D03*
X83820000Y-95680000D03*
X86360000Y-95680000D03*
X83820000Y-98220000D03*
X86360000Y-98220000D03*
X83820000Y-100760000D03*
X81280000Y-98220000D03*
X81280000Y-100760000D03*
X78740000Y-98220000D03*
X78740000Y-100760000D03*
X76200000Y-98220000D03*
X76200000Y-100760000D03*
X73660000Y-98220000D03*
X73660000Y-100760000D03*
X71120000Y-98220000D03*
X71120000Y-100760000D03*
X68580000Y-98220000D03*
X68580000Y-100760000D03*
X66040000Y-98220000D03*
X66040000Y-100760000D03*
X63500000Y-98220000D03*
X63500000Y-100760000D03*
X60960000Y-98220000D03*
X63500000Y-95680000D03*
X60960000Y-95680000D03*
X63500000Y-93140000D03*
X60960000Y-93140000D03*
X63500000Y-90600000D03*
X60960000Y-90600000D03*
X63500000Y-88060000D03*
X60960000Y-88060000D03*
X63500000Y-85520000D03*
X60960000Y-85520000D03*
X63500000Y-82980000D03*
X60960000Y-82980000D03*
X63500000Y-80440000D03*
X60960000Y-80440000D03*
X63500000Y-77900000D03*
X60960000Y-77900000D03*
X63500000Y-75360000D03*
X66040000Y-77900000D03*
X66040000Y-75360000D03*
X68580000Y-77900000D03*
X68580000Y-75360000D03*
X71120000Y-77900000D03*
X71120000Y-75360000D03*
X73660000Y-77900000D03*
D11*
X73660000Y-75360000D03*
D12*
X50800000Y-126150000D03*
X50800000Y-123610000D03*
X50800000Y-121070000D03*
X50800000Y-118530000D03*
X50800000Y-115990000D03*
X50800000Y-113450000D03*
X50800000Y-110910000D03*
X50800000Y-108370000D03*
X50800000Y-105830000D03*
X50800000Y-103290000D03*
X50800000Y-100750000D03*
X50800000Y-98210000D03*
X50800000Y-95670000D03*
X50800000Y-93130000D03*
X50800000Y-90590000D03*
X50800000Y-88050000D03*
X50800000Y-85510000D03*
X50800000Y-82970000D03*
X50800000Y-80430000D03*
X50800000Y-77890000D03*
X50800000Y-75350000D03*
X50800000Y-72810000D03*
X50800000Y-70270000D03*
X50800000Y-67730000D03*
X50800000Y-65190000D03*
X50800000Y-62650000D03*
X50800000Y-60110000D03*
X50800000Y-57570000D03*
X50800000Y-55030000D03*
X50800000Y-52490000D03*
X50800000Y-49950000D03*
D13*
X96520000Y-49960000D03*
D12*
X96520000Y-70280000D03*
D13*
X96520000Y-126160000D03*
D12*
X96520000Y-123620000D03*
X96520000Y-121080000D03*
X96520000Y-118540000D03*
X96520000Y-116000000D03*
X96520000Y-113460000D03*
X96520000Y-110920000D03*
X96520000Y-108380000D03*
X96520000Y-105840000D03*
X96520000Y-103300000D03*
X96520000Y-100760000D03*
X96520000Y-98220000D03*
X96520000Y-95680000D03*
X96520000Y-93140000D03*
X96520000Y-90600000D03*
X96520000Y-88060000D03*
X96520000Y-85520000D03*
X96520000Y-82980000D03*
X96520000Y-80440000D03*
X96520000Y-77900000D03*
X96520000Y-75360000D03*
X96520000Y-72820000D03*
X96520000Y-67740000D03*
X96520000Y-65200000D03*
X96520000Y-62660000D03*
X96520000Y-60120000D03*
X96520000Y-57580000D03*
D13*
X96520000Y-55040000D03*
D12*
X96520000Y-52500000D03*
D14*
X68580000Y-108888000D03*
X66040000Y-68502000D03*
X78740000Y-63930000D03*
X83185000Y-68375000D03*
X77470000Y-68375000D03*
X82550000Y-70280000D03*
X73660000Y-70280000D03*
D15*
X53858000Y-123610000D02*
X50800000Y-123610000D01*
X68580000Y-108888000D02*
X53858000Y-123610000D01*
X73660000Y-63930000D02*
X78740000Y-63930000D01*
X68834000Y-59104000D02*
X73660000Y-63930000D01*
X56632000Y-49950000D02*
X65786000Y-59104000D01*
X65786000Y-59104000D02*
X68834000Y-59104000D01*
X50800000Y-49950000D02*
X56632000Y-49950000D01*
X69850000Y-72820000D02*
X69850000Y-72312000D01*
X69850000Y-72312000D02*
X66040000Y-68502000D01*
X68580000Y-77900000D02*
X69850000Y-76630000D01*
X69850000Y-76630000D02*
X69850000Y-72820000D01*
X67310000Y-61390000D02*
X76200000Y-70280000D01*
X64770000Y-61390000D02*
X67310000Y-61390000D01*
X93980000Y-62660000D02*
X96520000Y-62660000D01*
X82804000Y-66978000D02*
X89662000Y-66978000D01*
X78740000Y-71042000D02*
X82804000Y-66978000D01*
X78740000Y-75360000D02*
X78740000Y-71042000D01*
X89662000Y-66978000D02*
X93980000Y-62660000D01*
X79752200Y-71807800D02*
X83185000Y-68375000D01*
X79752200Y-76887800D02*
X79752200Y-71807800D01*
X78740000Y-77900000D02*
X79752200Y-76887800D01*
X83820000Y-62025000D02*
X77470000Y-68375000D01*
X89535000Y-62025000D02*
X83820000Y-62025000D01*
X93980000Y-57580000D02*
X89535000Y-62025000D01*
X96520000Y-57580000D02*
X93980000Y-57580000D01*
X53340000Y-55040000D02*
X54610000Y-55040000D01*
X54610000Y-55040000D02*
X72390000Y-72820000D01*
X72390000Y-72820000D02*
X72390000Y-76630000D01*
X53330000Y-55030000D02*
X53340000Y-55040000D01*
X50800000Y-55030000D02*
X53330000Y-55030000D01*
X53330000Y-57570000D02*
X68580000Y-72820000D01*
X68580000Y-72820000D02*
X68580000Y-73455000D01*
X50800000Y-57570000D02*
X53330000Y-57570000D01*
X68580000Y-75360000D02*
X68580000Y-73455000D01*
X88900000Y-70280000D02*
X82550000Y-70280000D01*
X93980000Y-65200000D02*
X88900000Y-70280000D01*
X96520000Y-65200000D02*
X93980000Y-65200000D01*
X72390000Y-76630000D02*
X71120000Y-77900000D01*
X55870000Y-52490000D02*
X50800000Y-52490000D01*
X64770000Y-61390000D02*
X55870000Y-52490000D01*
X50810000Y-52500000D02*
X50800000Y-52490000D01*
X50810000Y-55040000D02*
X50800000Y-55030000D01*
X66040000Y-72820000D02*
X66040000Y-75360000D01*
X53330000Y-60110000D02*
X66040000Y-72820000D01*
X50800000Y-60110000D02*
X53330000Y-60110000D01*
X53330000Y-62650000D02*
X64770000Y-74090000D01*
X64770000Y-74090000D02*
X64770000Y-76630000D01*
X50800000Y-62650000D02*
X53330000Y-62650000D01*
X64770000Y-76630000D02*
X66040000Y-77900000D01*
X60960000Y-72820000D02*
X60960000Y-77900000D01*
X53330000Y-65190000D02*
X60960000Y-72820000D01*
X50800000Y-65190000D02*
X53330000Y-65190000D01*
X60960000Y-80440000D02*
X58293000Y-77773000D01*
X58293000Y-75233000D02*
X53330000Y-70270000D01*
X58293000Y-77773000D02*
X58293000Y-75233000D01*
X53330000Y-70270000D02*
X50800000Y-70270000D01*
X62230000Y-81710000D02*
X59817000Y-81710000D01*
X59817000Y-81710000D02*
X56896000Y-78789000D01*
X56896000Y-78789000D02*
X56896000Y-76376000D01*
X50810000Y-72820000D02*
X50800000Y-72810000D01*
X56896000Y-76376000D02*
X53340000Y-72820000D01*
X53340000Y-72820000D02*
X50810000Y-72820000D01*
X63500000Y-80440000D02*
X62230000Y-81710000D01*
X59817000Y-82980000D02*
X55626000Y-78789000D01*
X55626000Y-78906000D02*
X55626000Y-77763000D01*
X60960000Y-82980000D02*
X59817000Y-82980000D01*
X53213000Y-75350000D02*
X50800000Y-75350000D01*
X55626000Y-77763000D02*
X53213000Y-75350000D01*
X59690000Y-84250000D02*
X53330000Y-77890000D01*
X63500000Y-82980000D02*
X62230000Y-84250000D01*
X53330000Y-77890000D02*
X50800000Y-77890000D01*
X62230000Y-84250000D02*
X59690000Y-84250000D01*
X53340000Y-80440000D02*
X58420000Y-85520000D01*
X50810000Y-80440000D02*
X50800000Y-80430000D01*
X58420000Y-85520000D02*
X60960000Y-85520000D01*
X53340000Y-80440000D02*
X50810000Y-80440000D01*
X62230000Y-86790000D02*
X57150000Y-86790000D01*
X53340000Y-82980000D02*
X50810000Y-82980000D01*
X57150000Y-86790000D02*
X53340000Y-82980000D01*
X50810000Y-82980000D02*
X50800000Y-82970000D01*
X63500000Y-85520000D02*
X62230000Y-86790000D01*
X55880000Y-88060000D02*
X53330000Y-85510000D01*
X53330000Y-85510000D02*
X50800000Y-85510000D01*
X60960000Y-88060000D02*
X55880000Y-88060000D01*
X53330000Y-88050000D02*
X50800000Y-88050000D01*
X54610000Y-89330000D02*
X53330000Y-88050000D01*
X63500000Y-88060000D02*
X62230000Y-89330000D01*
X62230000Y-89330000D02*
X54610000Y-89330000D01*
X60960000Y-90600000D02*
X52070000Y-90600000D01*
X52060000Y-90590000D02*
X50800000Y-90590000D01*
X52070000Y-90600000D02*
X52060000Y-90590000D01*
X53340000Y-93140000D02*
X53330000Y-93130000D01*
X63500000Y-90600000D02*
X62230000Y-91870000D01*
X53330000Y-93130000D02*
X50800000Y-93130000D01*
X54610000Y-91870000D02*
X53340000Y-93140000D01*
X62230000Y-91870000D02*
X54610000Y-91870000D01*
X55880000Y-93140000D02*
X53350000Y-95670000D01*
X53350000Y-95670000D02*
X50800000Y-95670000D01*
X60960000Y-93140000D02*
X55880000Y-93140000D01*
X53340000Y-98220000D02*
X52070000Y-98220000D01*
X57150000Y-94410000D02*
X62230000Y-94410000D01*
X62230000Y-94410000D02*
X63500000Y-93140000D01*
X52060000Y-98210000D02*
X50800000Y-98210000D01*
X52070000Y-98220000D02*
X52060000Y-98210000D01*
X53340000Y-98220000D02*
X57150000Y-94410000D01*
X53340000Y-100760000D02*
X53330000Y-100750000D01*
X53340000Y-100760000D02*
X58420000Y-95680000D01*
X53330000Y-100750000D02*
X50800000Y-100750000D01*
X58420000Y-95680000D02*
X60960000Y-95680000D01*
X52060000Y-103290000D02*
X50800000Y-103290000D01*
X52070000Y-103300000D02*
X52060000Y-103290000D01*
X59690000Y-96950000D02*
X62230000Y-96950000D01*
X53340000Y-103300000D02*
X59690000Y-96950000D01*
X53340000Y-103300000D02*
X52070000Y-103300000D01*
X62230000Y-96950000D02*
X63500000Y-95680000D01*
X60960000Y-98220000D02*
X53340000Y-105840000D01*
X53340000Y-105840000D02*
X52070000Y-105840000D01*
X52070000Y-105840000D02*
X52060000Y-105830000D01*
X52060000Y-105830000D02*
X50800000Y-105830000D01*
X60960000Y-103300000D02*
X58420000Y-103300000D01*
X53340000Y-108380000D02*
X52070000Y-108380000D01*
X63500000Y-100760000D02*
X60960000Y-103300000D01*
X58420000Y-103300000D02*
X53340000Y-108380000D01*
X52060000Y-108370000D02*
X50800000Y-108370000D01*
X52070000Y-108380000D02*
X52060000Y-108370000D01*
X64770000Y-99490000D02*
X63500000Y-98220000D01*
X53330000Y-110910000D02*
X50800000Y-110910000D01*
X61976000Y-104570000D02*
X64770000Y-101776000D01*
X53340000Y-110920000D02*
X53330000Y-110910000D01*
X64770000Y-101776000D02*
X64770000Y-99490000D01*
X53340000Y-110920000D02*
X59690000Y-104570000D01*
X59690000Y-104570000D02*
X61976000Y-104570000D01*
X53340000Y-113460000D02*
X52070000Y-113460000D01*
X52070000Y-113460000D02*
X52060000Y-113450000D01*
X67310000Y-99490000D02*
X67310000Y-101903000D01*
X52060000Y-113450000D02*
X50800000Y-113450000D01*
X67310000Y-101903000D02*
X62103000Y-107110000D01*
X62103000Y-107110000D02*
X59690000Y-107110000D01*
X59690000Y-107110000D02*
X53340000Y-113460000D01*
X68580000Y-98220000D02*
X67310000Y-99490000D01*
X63055500Y-108824500D02*
X60515500Y-108824500D01*
X53340000Y-116000000D02*
X53330000Y-115990000D01*
X60515500Y-108824500D02*
X53340000Y-116000000D01*
X53330000Y-115990000D02*
X50800000Y-115990000D01*
X71120000Y-100760000D02*
X63055500Y-108824500D01*
X72390000Y-102284000D02*
X64452500Y-110221500D01*
X61658500Y-110221500D02*
X53340000Y-118540000D01*
X71120000Y-98220000D02*
X72390000Y-99490000D01*
X64452500Y-110221500D02*
X61658500Y-110221500D01*
X53340000Y-118540000D02*
X53330000Y-118530000D01*
X53330000Y-118530000D02*
X50800000Y-118530000D01*
X72390000Y-99490000D02*
X72390000Y-102284000D01*
X93980000Y-126160000D02*
X73660000Y-105840000D01*
X93980000Y-126160000D02*
X96520000Y-126160000D01*
X73660000Y-105840000D02*
X73660000Y-100760000D01*
X74930000Y-104570000D02*
X74930000Y-99490000D01*
X93980000Y-123620000D02*
X96520000Y-123620000D01*
X93980000Y-123620000D02*
X74930000Y-104570000D01*
X74930000Y-99490000D02*
X73660000Y-98220000D01*
X77470000Y-104570000D02*
X77470000Y-99490000D01*
X93980000Y-121080000D02*
X96520000Y-121080000D01*
X93980000Y-121080000D02*
X77470000Y-104570000D01*
X77470000Y-99490000D02*
X76200000Y-98220000D01*
X80137000Y-99617000D02*
X78740000Y-98220000D01*
X93980000Y-118540000D02*
X96520000Y-118540000D01*
X80137000Y-104697000D02*
X80137000Y-99617000D01*
X93980000Y-118540000D02*
X80137000Y-104697000D01*
X93980000Y-116000000D02*
X96520000Y-116000000D01*
X82550000Y-104570000D02*
X82550000Y-99490000D01*
X93980000Y-116000000D02*
X82550000Y-104570000D01*
X82550000Y-99490000D02*
X81280000Y-98220000D01*
X93980000Y-113460000D02*
X96520000Y-113460000D01*
X93980000Y-113460000D02*
X86360000Y-105840000D01*
X86360000Y-105840000D02*
X86360000Y-98220000D01*
X93980000Y-110920000D02*
X87630000Y-104570000D01*
X93980000Y-110920000D02*
X96520000Y-110920000D01*
X87630000Y-104570000D02*
X87630000Y-96950000D01*
X87630000Y-96950000D02*
X86360000Y-95680000D01*
X93980000Y-108380000D02*
X96520000Y-108380000D01*
X93980000Y-108380000D02*
X88900000Y-103300000D01*
X88900000Y-103300000D02*
X88900000Y-95680000D01*
X88900000Y-95680000D02*
X86360000Y-93140000D01*
X90170000Y-94410000D02*
X90170000Y-102030000D01*
X86360000Y-90600000D02*
X90170000Y-94410000D01*
X93980000Y-105840000D02*
X96520000Y-105840000D01*
X90170000Y-102030000D02*
X93980000Y-105840000D01*
X83820000Y-88060000D02*
X85090000Y-86790000D01*
X90170000Y-86790000D02*
X93980000Y-82980000D01*
X93980000Y-82980000D02*
X96520000Y-82980000D01*
X85090000Y-86790000D02*
X90170000Y-86790000D01*
X87630000Y-84250000D02*
X90170000Y-84250000D01*
X93980000Y-80440000D02*
X96520000Y-80440000D01*
X90170000Y-84250000D02*
X93980000Y-80440000D01*
X86360000Y-85520000D02*
X87630000Y-84250000D01*
X83820000Y-82980000D02*
X85090000Y-81710000D01*
X85090000Y-81710000D02*
X90170000Y-81710000D01*
X90170000Y-81710000D02*
X93980000Y-77900000D01*
X93980000Y-77900000D02*
X96520000Y-77900000D01*
X93980000Y-75360000D02*
X96520000Y-75360000D01*
X90170000Y-79170000D02*
X93980000Y-75360000D01*
X85090000Y-79170000D02*
X90170000Y-79170000D01*
X83820000Y-80440000D02*
X85090000Y-79170000D01*
X83820000Y-75360000D02*
X91440000Y-75360000D01*
X91440000Y-75360000D02*
X93980000Y-72820000D01*
X93980000Y-72820000D02*
X96520000Y-72820000D01*
X93980000Y-67740000D02*
X89662000Y-72058000D01*
X81280000Y-74090000D02*
X81280000Y-75360000D01*
X93980000Y-67740000D02*
X96520000Y-67740000D01*
X83312000Y-72058000D02*
X81280000Y-74090000D01*
X89662000Y-72058000D02*
X83312000Y-72058000D01*
X83566000Y-73709000D02*
X90551000Y-73709000D01*
X82550000Y-76630000D02*
X82550000Y-74725000D01*
X82550000Y-74725000D02*
X83566000Y-73709000D01*
X93980000Y-70280000D02*
X96520000Y-70280000D01*
X81280000Y-77900000D02*
X82550000Y-76630000D01*
X90551000Y-73709000D02*
X93980000Y-70280000D01*
X93980000Y-60120000D02*
X96520000Y-60120000D01*
X89535000Y-64565000D02*
X93980000Y-60120000D01*
X83820000Y-64565000D02*
X89535000Y-64565000D01*
X76200000Y-77900000D02*
X77470000Y-76630000D01*
X77470000Y-76630000D02*
X77470000Y-70915000D01*
X77470000Y-70915000D02*
X83820000Y-64565000D01*
X76200000Y-70280000D02*
X76200000Y-75360000D01*
X73660000Y-75360000D02*
X73660000Y-70280000D01*
M02*
